<?xml version="1.0" encoding="iso-8859-1"?>
<!-- Generator: Adobe Illustrator 17.1.0, SVG Export Plug-In . SVG Version: 6.00 Build 0)  -->
<!DOCTYPE svg PUBLIC "-//W3C//DTD SVG 1.1//EN" "http://www.w3.org/Graphics/SVG/1.1/DTD/svg11.dtd">
<svg version="1.1" id="Layer_1" xmlns="http://www.w3.org/2000/svg" xmlns:xlink="http://www.w3.org/1999/xlink" x="0px" y="0px"
	 viewBox="0 0 231.14 340.158" style="enable-background:new 0 0 231.14 340.158;" xml:space="preserve">
<g id="RED__x2F__YELLOW_CARD">
	<path id="sleeve_31_" d="M131.005,337.426v-38.154c0-0.725-0.311-1.418-0.869-1.93c-0.557-0.516-1.314-0.803-2.102-0.801H22.345
		c-1.641,0-2.973,1.223-2.973,2.733v38.152c0,0.723,0.311,1.42,0.867,1.932c0.56,0.512,1.316,0.801,2.105,0.801h105.689
		C129.675,340.158,131.005,338.934,131.005,337.426z"/>
	<path id="hand" d="M226.32,217.203l-9.117-23.008c-0.041-0.158-0.09-0.314-0.152-0.467l-6.465-16.316
		c-0.16-0.408-0.344-0.816-0.545-1.209l-9.555-24.121c-0.207-0.51-0.43-1.023-0.73-1.678c-0.01-0.023-0.021-0.047-0.033-0.07
		c-0.037-0.086-0.066-0.153-0.1-0.219l-0.074-0.156c-0.051-0.105-0.1-0.209-0.15-0.314c-0.34-0.697-0.654-1.297-0.977-1.86
		c-0.006-0.007-0.008-0.015-0.012-0.021c-0.434-0.763-0.91-1.523-1.453-2.321c-0.021-0.031-0.043-0.064-0.064-0.096
		c0,0,0-0.001,0-0.002c-0.002,0-0.002-0.001-0.002-0.002c-0.008-0.01-0.016-0.02-0.023-0.03l-0.088-0.127
		c-0.232-0.335-0.461-0.651-0.693-0.963c-0.033-0.046-0.064-0.09-0.098-0.134l0.018,0.027c-0.006-0.009-0.012-0.018-0.02-0.027
		h0.002c-0.002-0.002-0.002-0.003-0.004-0.004c-0.027-0.035-0.053-0.071-0.08-0.105l-0.078-0.104
		c-0.086-0.113-0.172-0.227-0.26-0.338c-0.049-0.061-0.098-0.12-0.15-0.178c-0.115-0.15-0.236-0.301-0.359-0.448
		c-0.002-0.003-0.004-0.006-0.008-0.009c-3.1-3.756-6.891-6.768-11.273-8.953c-4.715-2.352-9.918-3.596-15.047-3.596
		c0,0,0,0-0.002,0c-3.492,0.002-6.928,0.561-10.217,1.66c-3.709,1.242-7.068,3.111-9.982,5.557c-0.1,0.083-0.188,0.159-0.273,0.236
		l-0.596,0.521c-0.014,0.012-0.025,0.023-0.039,0.035l-0.074,0.07l-0.066,0.057c-0.027,0.025-0.057,0.053-0.086,0.078
		c-2.906,2.691-5.219,5.863-6.875,9.43c-0.021,0.047-0.045,0.096-0.066,0.143c-0.219,0.479-0.422,0.957-0.607,1.424
		c-0.002,0.004-0.004,0.009-0.006,0.014c-0.004,0.006-0.006,0.012-0.008,0.018c-0.184,0.468-0.367,0.967-0.541,1.482
		c-0.016,0.041-0.031,0.088-0.045,0.137c-0.152,0.457-0.295,0.926-0.426,1.393c-0.002,0.012-0.006,0.025-0.01,0.038
		c-0.014,0.044-0.025,0.087-0.035,0.128c-0.117,0.423-0.227,0.871-0.338,1.369c-0.004,0.018-0.008,0.037-0.012,0.055
		c-0.014,0.051-0.029,0.113-0.041,0.176c-0.094,0.438-0.178,0.882-0.252,1.327c-0.025,0.127-0.043,0.232-0.059,0.333
		c-0.066,0.412-0.119,0.828-0.168,1.243l-0.01,0.083c-0.014,0.096-0.025,0.192-0.035,0.287c-0.045,0.42-0.076,0.846-0.104,1.273
		l-0.006,0.049c-0.008,0.119-0.018,0.236-0.023,0.355c-0.027,0.539-0.043,1.094-0.045,1.633c0,4.104,0.785,8.156,2.33,12.057
		l5.979,15.082l0.641,1.621l2.709,6.832c0.062,0.156,0.133,0.305,0.211,0.447l0.996,2.514l-0.367-1.088l-19.523,19.523h26.566h0.002
		c0.234,0,0.457-0.006,0.682-0.025h13.99c1.27,0,2.453-0.627,3.166-1.676c0.713-1.049,0.859-2.383,0.393-3.561l-12.424-31.342
		l-1.057-2.67l-4.916-12.41c-0.689-1.74-1.041-3.522-1.041-5.298c0-0.388,0.018-0.79,0.055-1.19
		c0.004-0.033,0.006-0.064,0.008-0.098c0.035-0.359,0.088-0.723,0.156-1.082c0.006-0.028,0.018-0.091,0.027-0.158
		c0.064-0.324,0.148-0.654,0.248-1.008c0.004-0.012,0.018-0.055,0.021-0.072c0.006-0.016,0.01-0.03,0.014-0.046
		c0.098-0.331,0.215-0.666,0.348-0.997l0.037-0.09c0.141-0.342,0.293-0.667,0.455-0.98c0.02-0.031,0.037-0.069,0.055-0.101
		c0.156-0.3,0.34-0.606,0.541-0.915c0.02-0.026,0.031-0.045,0.049-0.072c0.191-0.286,0.396-0.568,0.613-0.838
		c0.025-0.029,0.051-0.06,0.074-0.09c0.238-0.291,0.496-0.578,0.766-0.852c0.102-0.1,0.217-0.215,0.34-0.33l0.521-0.458
		c1.137-0.948,2.475-1.683,3.979-2.184c1.416-0.475,2.895-0.714,4.404-0.714c2.34,0,4.648,0.56,6.865,1.667
		c1.172,0.584,2.295,1.336,3.346,2.232c0.219,0.186,0.447,0.393,0.701,0.636l0.082,0.083c0.365,0.356,0.717,0.736,1.066,1.146
		l0.119,0.139c0.043,0.05,0.088,0.1,0.129,0.152c0.164,0.201,0.299,0.381,0.432,0.561c0.088,0.119,0.162,0.23,0.238,0.343
		l0.057,0.082c0.041,0.06,0.082,0.12,0.125,0.179c0.127,0.188,0.234,0.354,0.338,0.521c0.178,0.291,0.354,0.597,0.516,0.906
		c0.055,0.106,0.117,0.232,0.184,0.361c0.219,0.443,0.383,0.805,0.514,1.139l4.391,11.084l5.648,14.242
		c0.084,0.211,0.184,0.414,0.303,0.604l4.668,11.781l10.891,27.48c0.617,1.562,0.932,3.199,0.934,4.857
		c-0.002,3.852-1.75,7.67-4.801,10.471c-1.809,1.662-3.982,2.93-6.461,3.768l-73.451,23.42H33.827v-22.627v-11.359l0.002-18.461
		l-0.002-4.105v-6.652v-3.732l-18.281-18.283v22.014v6.654v22.566v38.301c0.008,7.832,6.647,14.201,14.797,14.201l5.494-0.006
		c0.066,0.004,0.137,0.006,0.205,0.006h91.73c0.396,0,0.791-0.06,1.166-0.182l58.717-18.799c0.127-0.041,0.254-0.088,0.375-0.142
		l16.543-5.273l0.051-0.016c0.033-0.01,0.064-0.022,0.098-0.031c4.945-1.656,9.342-4.232,13.07-7.656
		c6.84-6.285,10.762-15.061,10.762-24.078C228.554,224.875,227.8,220.945,226.32,217.203z"/>
	<g id="car">
		<path d="M74.544,224.086c4.559,4.557,10.588,7.066,16.98,7.066c6.248,0,12.104-2.414,16.488-6.799l28.643-28.645l-0.701-1.766
			l-0.639-1.617l-5.979-15.084c-0.014-0.033-0.023-0.068-0.039-0.102l-34.248,34.25c-0.92,0.918-2.172,1.426-3.525,1.426
			c-1.498,0-2.924-0.602-4.016-1.693l-67.48-67.482c-1.06-1.061-1.662-2.446-1.691-3.902c-0.029-1.397,0.477-2.688,1.424-3.636
			L136.103,19.76c0.916-0.918,2.168-1.424,3.521-1.424c1.498,0,2.924,0.601,4.016,1.692l67.482,67.482
			c2.154,2.152,2.273,5.534,0.27,7.539L184.62,121.82c1.451,0.549,2.885,1.159,4.281,1.855c4.305,2.148,8.182,4.9,11.582,8.209
			l23.869-23.873c9.152-9.152,9.033-24.166-0.268-33.465l-67.48-67.482C152.048,2.51,146.019,0,139.626,0
			c-6.248,0-12.104,2.414-16.486,6.797L6.798,123.139c-4.443,4.443-6.858,10.38-6.797,16.715c0.06,6.307,2.568,12.256,7.064,16.752
			L74.544,224.086z"/>
		<path d="M126.312,163.891c-0.064-0.98-0.111-1.965-0.111-2.953c0.002-0.726,0.021-1.465,0.057-2.154
			c0.012-0.244,0.029-0.488,0.049-0.73c0.039-0.604,0.082-1.125,0.137-1.635c0.021-0.186,0.043-0.373,0.064-0.529l0.002-0.02
			c0.068-0.578,0.139-1.096,0.215-1.58c0.027-0.186,0.061-0.378,0.102-0.6c0.103-0.609,0.211-1.17,0.328-1.715
			c0.025-0.119,0.051-0.236,0.078-0.347c0.146-0.651,0.295-1.252,0.451-1.833c0.018-0.064,0.037-0.129,0.055-0.194
			c0.006-0.026,0.014-0.052,0.021-0.079c0.17-0.611,0.355-1.225,0.555-1.826c0.037-0.115,0.074-0.227,0.109-0.332
			c0.232-0.684,0.479-1.356,0.734-2c0-0.004,0.002-0.008,0.004-0.012c0.004-0.008,0.006-0.018,0.01-0.025
			c0.25-0.629,0.523-1.27,0.814-1.906c0.051-0.113,0.104-0.227,0.156-0.339c2.285-4.896,5.465-9.247,9.424-12.912
			c0.082-0.077,0.168-0.155,0.256-0.233l0.053-0.049c0.029-0.025,0.096-0.085,0.123-0.109c0.029-0.025,0.057-0.051,0.084-0.074
			l0.578-0.508c0.148-0.131,0.297-0.26,0.488-0.42c4.021-3.375,8.637-5.948,13.719-7.649c4.465-1.493,9.125-2.251,13.859-2.253
			h0.002c0.842,0,1.684,0.027,2.527,0.076l27.535-27.535l-59.055-59.053L32.362,139.738l59.051,59.053L126.312,163.891z"/>
	</g>
</g>
</svg>
