<?xml version="1.0" encoding="iso-8859-1"?>
<!-- Generator: Adobe Illustrator 17.1.0, SVG Export Plug-In . SVG Version: 6.00 Build 0)  -->
<!DOCTYPE svg PUBLIC "-//W3C//DTD SVG 1.1//EN" "http://www.w3.org/Graphics/SVG/1.1/DTD/svg11.dtd">
<svg version="1.1" id="Layer_1" xmlns="http://www.w3.org/2000/svg" xmlns:xlink="http://www.w3.org/1999/xlink" x="0px" y="0px"
	 viewBox="0 0 340.156 239.012" style="enable-background:new 0 0 340.156 239.012;" xml:space="preserve">
<g id="FOOTBALL_PITCH">
	<g>
		<path d="M190.154,119.506c0-8.891-5.814-16.438-13.834-19.07v38.141C184.34,135.943,190.154,128.396,190.154,119.506z"/>
		<path d="M150.002,119.506c0,8.891,5.812,16.438,13.834,19.07v-38.141C155.814,103.068,150.002,110.615,150.002,119.506z"/>
	</g>
	<g>
		<g>
			<rect x="39.65" y="87.412" width="25.024" height="64.186"/>
			<path d="M163.836,87.553V36.414H39.65V74.93h37.506v89.15H39.65v38.516h124.186v-51.139
				c-14.977-2.918-26.316-16.133-26.316-31.951C137.52,103.688,148.859,90.473,163.836,87.553z"/>
		</g>
		<g>
			<rect x="275.482" y="87.412" width="25.024" height="64.186"/>
			<path d="M263,164.08V74.93h37.506V36.414H176.32v51.139c14.977,2.92,26.316,16.135,26.316,31.953
				c0,15.818-11.34,29.033-26.316,31.951v51.139h124.186V164.08H263z"/>
		</g>
	</g>
	<path id="stroke_2_" d="M318.627,0h-297.1C9.656,0,0,10.926,0,24.355v190.301c0,13.428,9.656,24.355,21.527,24.355h297.1
		c11.871,0,21.529-10.928,21.529-24.355V24.355C340.156,10.926,330.498,0,318.627,0z M319.352,24.355v36.33v131.609v22.361v3.551
		h-1.133h-24.445H37.078H21.938h-1.133v-3.551v-22.752V24.355c0-0.103,0.002-3.561,0.002-3.561h15.142v0.01h252.086h30.184h1.133
		V24.355z"/>
</g>
</svg>
