<?xml version="1.0" encoding="iso-8859-1"?>
<!-- Generator: Adobe Illustrator 17.1.0, SVG Export Plug-In . SVG Version: 6.00 Build 0)  -->
<!DOCTYPE svg PUBLIC "-//W3C//DTD SVG 1.1//EN" "http://www.w3.org/Graphics/SVG/1.1/DTD/svg11.dtd">
<svg version="1.1" id="Layer_1" xmlns="http://www.w3.org/2000/svg" xmlns:xlink="http://www.w3.org/1999/xlink" x="0px" y="0px"
	 viewBox="0 0 221.08 311.811" style="enable-background:new 0 0 221.08 311.811;" xml:space="preserve">
<g id="FLAG_1">
	<path id="flag" d="M210.045,24.049H38v31.816v30.941h85.84V35.084h86.205v51.723H123.84v51.725H38v11.035h172.045
		c6.096,0,11.035-4.941,11.035-11.035V35.084C221.08,28.99,216.141,24.049,210.045,24.049z"/>
	<path id="pole" d="M12.5,0C5.598,0,0,5.596,0,12.5v43.365v200.08v43.365c0,6.902,5.598,12.5,12.5,12.5
		c6.904,0,12.5-5.598,12.5-12.5v-43.365V55.865V12.5C25,5.596,19.404,0,12.5,0z"/>
</g>
</svg>
