<?xml version="1.0" encoding="iso-8859-1"?>
<!-- Generator: Adobe Illustrator 17.1.0, SVG Export Plug-In . SVG Version: 6.00 Build 0)  -->
<!DOCTYPE svg PUBLIC "-//W3C//DTD SVG 1.1//EN" "http://www.w3.org/Graphics/SVG/1.1/DTD/svg11.dtd">
<svg version="1.1" id="Layer_1" xmlns="http://www.w3.org/2000/svg" xmlns:xlink="http://www.w3.org/1999/xlink" x="0px" y="0px"
	 viewBox="0 0 331.654 203.973" style="enable-background:new 0 0 331.654 203.973;" xml:space="preserve">
<g id="GOAL">
	<path id="gate" d="M320.066,0H11.59C5.201,0,0,5.197,0,11.588v180.797c0,6.391,5.201,11.588,11.59,11.588
		c6.391,0,11.588-5.197,11.588-11.588V23.176h285.299v169.209c0,6.391,5.199,11.588,11.59,11.588
		c6.389,0,11.588-5.197,11.588-11.588V11.588C331.654,5.197,326.455,0,320.066,0z"/>
	<path id="ball" d="M279.201,152.791l-0.012-0.379c-0.01-0.27-0.018-0.541-0.037-0.92l-0.016-0.311
		c-0.014-0.266-0.031-0.535-0.051-0.801l-0.027-0.379c-0.027-0.348-0.059-0.695-0.092-1.039l-0.012-0.143
		c-0.039-0.371-0.082-0.74-0.127-1.107l-0.057-0.408c-0.031-0.246-0.066-0.49-0.102-0.727l-0.264-1.609
		c-0.049-0.266-0.1-0.535-0.162-0.842l-0.094-0.457c-0.059-0.287-0.119-0.574-0.188-0.869l-0.852-3.221
		c-0.109-0.359-0.219-0.719-0.361-1.156l-1.197-3.271c-0.318-0.783-0.654-1.555-1.035-2.369l-0.082-0.178
		c-0.113-0.238-0.229-0.473-0.342-0.703l-0.109-0.225c-0.125-0.246-0.25-0.492-0.398-0.773c-0.428-0.828-0.887-1.652-1.412-2.533
		c-0.146-0.25-0.301-0.5-0.453-0.748l-0.074-0.117c-0.666-1.066-1.379-2.115-2.072-3.057l-0.131-0.201l-0.033-0.023
		c-6.717-9.066-16.379-15.656-27.223-18.564l-0.123-0.033c-0.27-0.072-0.541-0.141-0.822-0.209l-0.225-0.057
		c-0.266-0.064-0.531-0.125-0.869-0.201l-0.111-0.025c-0.555-0.123-1.113-0.238-1.678-0.342l-4.207-0.594
		c-0.326-0.033-0.652-0.062-0.977-0.088l-1.619-0.1c-0.266-0.014-0.533-0.023-0.801-0.031l-0.371-0.01
		c-0.783-0.02-1.564-0.018-2.354-0.002l-0.373,0.014c-0.266,0.006-0.533,0.016-0.801,0.029l-1.611,0.1
		c-0.363,0.029-0.723,0.061-1.082,0.096l-3.234,0.436c-0.85,0.139-1.693,0.303-2.525,0.486l-0.141,0.029
		c-0.283,0.064-0.566,0.129-0.85,0.199l-0.139,0.033c-12.719,3.115-23.557,10.975-30.57,22.211c-0.158,0.26-0.318,0.517-0.502,0.826
		c-0.635,1.068-1.236,2.17-1.783,3.27l1.234,0.613l-1.326-0.432c-0.119,0.246-0.238,0.49-0.373,0.775l-0.07,0.154
		c-0.369,0.785-0.715,1.582-1.043,2.389l-0.08,0.201c-0.09,0.225-0.18,0.451-0.268,0.684l-0.512,1.395
		c-0.07,0.207-0.145,0.414-0.211,0.613l-0.115,0.354c-0.125,0.387-0.244,0.773-0.363,1.164l-0.846,3.201
		c-0.064,0.275-0.121,0.555-0.182,0.834l-0.109,0.541c-0.053,0.262-0.104,0.523-0.148,0.779l-0.264,1.607
		c-0.037,0.244-0.072,0.488-0.105,0.732l-0.053,0.41c-0.047,0.371-0.088,0.736-0.129,1.107l1.371,0.141l-1.383,0.002
		c-0.033,0.344-0.062,0.688-0.092,1.029l-0.027,0.393c-0.02,0.264-0.037,0.529-0.049,0.795l-0.023,0.418
		c-0.012,0.271-0.023,0.543-0.033,0.924l-0.008,0.266c-0.01,0.393-0.018,0.783-0.018,1.178c0,11.402,3.943,22.561,11.141,31.465
		l0.072,0.086c0.172,0.213,0.348,0.426,0.533,0.646l0.805,0.93c0.807,0.912,1.672,1.818,2.568,2.695l0.125,0.119v0.002
		c0.201,0.195,0.404,0.385,0.684,0.648l0.084,0.076c0.205,0.191,0.414,0.379,0.621,0.568l0.098,0.088
		c0.939,0.834,1.92,1.646,2.916,2.41l0.838-1.094l-0.719,1.182c0.232,0.18,0.467,0.355,0.682,0.512l0.154,0.115
		c0.24,0.174,0.484,0.348,0.754,0.537c1.057,0.74,2.158,1.451,3.264,2.104l0.113,0.064c0.26,0.152,0.523,0.305,0.789,0.453
		l0.098,0.055c1.436,0.803,2.914,1.535,4.469,2.217c0.287,0.125,0.578,0.246,0.93,0.393c6.035,2.48,12.424,3.736,18.994,3.736
		c8.947,0,17.73-2.395,25.392-6.918l0.121-0.076c0.258-0.15,0.514-0.305,0.756-0.455l0.139-0.088
		c1.053-0.654,2.09-1.355,3.115-2.107l2.713-2.133c0.334-0.283,0.666-0.572,0.994-0.865l1.102-1.01
		c0.141-0.131,0.281-0.266,0.418-0.398l2.344-2.42c0.221-0.24,0.438-0.488,0.662-0.744l2.379-2.959
		c0.193-0.258,0.385-0.52,0.572-0.783l0.086-0.117c6.029-8.482,9.217-18.488,9.217-28.934
		C279.217,153.57,279.211,153.178,279.201,152.791z M220.326,194.629l-6.639-13.504l7.625-10.393h15.975l7.625,10.393l-6.617,13.459
		C232.428,195.885,226.205,195.9,220.326,194.629z M247.564,151.637l12.229-4.004l10.812,10.553
		c-0.594,5.938-2.4,11.531-5.379,16.648l-14.84,2.271l-7.691-10.48L247.564,151.637z M257.682,141.18l-12.279,4.02l-12.758-9.268
		v-12.928l13.527-7.059c4.635,2.068,8.822,4.959,12.459,8.596c0.522,0.521,1.037,1.066,1.541,1.627L257.682,141.18z M200.732,141.18
		l-2.492-15.012c0.504-0.559,1.02-1.104,1.543-1.627c3.65-3.65,7.854-6.547,12.506-8.613l13.566,7.076v12.928l-12.785,9.287
		L200.732,141.18z M210.949,151.67l4.889,15.047l-7.625,10.389l-15.045-2.303c-2.969-5.107-4.77-10.693-5.361-16.617l10.811-10.553
		L210.949,151.67z"/>
</g>
</svg>
