<?xml version="1.0" encoding="iso-8859-1"?>
<!-- Generator: Adobe Illustrator 17.1.0, SVG Export Plug-In . SVG Version: 6.00 Build 0)  -->
<!DOCTYPE svg PUBLIC "-//W3C//DTD SVG 1.1//EN" "http://www.w3.org/Graphics/SVG/1.1/DTD/svg11.dtd">
<svg version="1.1" id="Layer_1" xmlns="http://www.w3.org/2000/svg" xmlns:xlink="http://www.w3.org/1999/xlink" x="0px" y="0px"
	 viewBox="0 0 360.001 219.935" style="enable-background:new 0 0 360.001 219.935;" xml:space="preserve">
<g id="GOALKEEPER_x27_S_GLOVES">
	<path id="hand_2_" d="M168.619,69.384c-1.502-1.83-3.275-3.393-5.275-4.643c-0.92-0.58-1.896-1.094-2.904-1.529
		c-1.4-0.604-2.861-1.053-4.342-1.34l-1.021-0.172c-2.25-0.32-4.539-0.285-6.744,0.104c-3.391,0.6-6.654,2.051-9.438,4.201
		c-2.215,1.711-4.08,3.818-5.539,6.262L117.51,98.81l-13.314-75.506c-0.029-0.168-0.074-0.328-0.109-0.398l-0.654-3.721
		c-0.02-0.104-0.041-0.213-0.064-0.324l-0.068-0.391c-0.051-0.267-0.106-0.52-0.172-0.773c-1.102-4.182-3.723-7.822-7.383-10.254
		C92.659,5.394,89.057,4.31,85.33,4.31c-1.1,0-2.211,0.096-3.371,0.297c-2.701,0.476-5.197,1.486-7.424,2.998
		c-1.242-1.738-2.775-3.232-4.561-4.441C66.004,0.48,61.117-0.553,56.35,0.286c-4.791,0.846-8.988,3.459-11.816,7.359
		c-2.143,2.953-3.34,6.352-3.48,9.863c-2.092-0.352-4.256-0.34-6.361,0.031c-4.801,0.846-9.012,3.461-11.852,7.363
		c-2.893,3.975-4.021,8.803-3.176,13.594l1.498,8.496c-1.914-0.266-3.826-0.242-5.863,0.107c-4.807,0.85-9.016,3.465-11.85,7.365
		c-2.893,3.973-4.022,8.799-3.176,13.592l26.141,148.25c0.213,1.209,0.947,2.281,2.012,2.939c0.736,0.451,1.586,0.688,2.455,0.688
		c0.002,0,0.002,0,0.002,0c0.279,0,0.562-0.023,0.84-0.074l88.549-15.613c2.502-0.441,4.195-2.754,3.773-5.154l-3.559-20.189
		l24.74-41.555c0.061-0.068,0.113-0.139,0.162-0.213c0.209-0.316,0.414-0.633,0.613-0.963l14.93-25.008
		c0.162-0.268,0.307-0.541,0.41-0.771l9.051-15.158c2.961-4.957,3.928-10.791,2.728-16.426
		C172.379,75.337,170.823,72.077,168.619,69.384z M108.166,117.986c0.021,0.125,0.053,0.244,0.092,0.369
		c0.488,1.475,1.508,2.703,2.867,3.455c1.271,0.707,2.779,0.969,4.197,0.715c1.758-0.309,3.293-1.365,4.209-2.895l4.129-6.91
		c0.045-0.062,0.088-0.129,0.127-0.193l2.773-4.648c0.061-0.078,0.115-0.16,0.168-0.248l17.383-29.123
		c0.66-1.1,1.484-2.037,2.461-2.787c1.18-0.914,2.498-1.506,3.916-1.756c0.898-0.156,1.842-0.168,2.725-0.043l0.461,0.076
		c0.59,0.117,1.168,0.297,1.723,0.535c0.416,0.18,0.826,0.396,1.223,0.646c0.871,0.547,1.631,1.217,2.266,1.996
		c0.986,1.207,1.664,2.633,2.008,4.236c0.553,2.604,0.107,5.299-1.256,7.588l-9.488,15.889c-0.088,0.148-0.16,0.303-0.176,0.373
		l-5.572,9.332c-0.141,0.145-0.266,0.309-0.371,0.486l-9.293,15.59c-0.094,0.125-0.188,0.25-0.281,0.365
		c-0.229,0.273-0.4,0.594-0.496,0.935l-22.73,38.127l-77.893,13.67L19.42,104.855c0-0.135-0.012-0.277-0.039-0.428l-1.719-9.746
		c-0.027-0.16-0.07-0.32-0.104-0.383l-5.142-29.139c-0.045-1.234,0.326-2.436,1.076-3.469c0.938-1.285,2.34-2.15,3.949-2.436
		c1.601-0.277,3.23,0.057,4.545,0.943c0.809,0.545,1.459,1.285,1.883,2.145l6.104,34.613c0.027,0.16,0.07,0.314,0.123,0.459
		l0.877,4.969c0.244,1.389,1.553,2.361,2.965,2.111l7.131-1.258c1.387-0.244,2.312-1.592,2.064-3l-11.09-62.896
		c0.006-0.184-0.006-0.373-0.041-0.561l-0.193-1.088c-0.072-1.264,0.301-2.496,1.076-3.56c0.938-1.287,2.34-2.152,3.951-2.436
		c1.596-0.281,3.225,0.057,4.543,0.943c0.9,0.605,1.594,1.437,2.008,2.408l11.49,65.121c0.244,1.391,1.561,2.361,2.965,2.109
		l7.287-1.283c0.664-0.117,1.264-0.506,1.65-1.066c0.387-0.566,0.533-1.254,0.414-1.934L60.487,57.99
		c-0.008-0.059-0.016-0.121-0.027-0.176l-1.047-5.904c-0.002-0.129-0.016-0.26-0.037-0.391l-3.422-19.393
		c-0.018-0.1-0.035-0.199-0.059-0.299l-0.068-0.383c-0.035-0.197-0.076-0.383-0.113-0.541l-2.086-11.826
		c-0.27-1.533,0.055-2.988,0.941-4.207c0.93-1.285,2.324-2.146,3.926-2.428c1.592-0.279,3.213,0.057,4.523,0.943
		c1.012,0.684,1.717,1.744,2.104,3.201l13.674,77.385c0.246,1.391,1.549,2.361,2.965,2.109l7.285-1.285
		c1.209-0.213,2.094-1.271,2.104-2.492c0.012-0.205,0-0.402-0.037-0.598L79.131,23.767l-0.137-0.768
		c-0.129-1.342,0.242-2.646,1.074-3.773c0.955-1.299,2.389-2.174,4.035-2.463c1.631-0.285,3.297,0.049,4.637,0.938
		c1.135,0.754,1.922,1.822,2.262,3.041l3.529,19.965c0.012,0.076,0.029,0.154,0.045,0.207l1.908,10.824l0.486-0.086l-0.459,0.229
		L108.166,117.986z M96.994,51.782L96.994,51.782L96.994,51.782L96.994,51.782z"/>
	<path id="hand_1_" d="M356.551,54.466c-2.836-3.9-7.045-6.516-11.918-7.377c-1.914-0.328-3.883-0.361-5.795-0.094l1.496-8.498
		c0.846-4.793-0.281-9.621-3.176-13.594c-2.838-3.902-7.045-6.517-11.848-7.363c-2.107-0.371-4.273-0.383-6.365-0.031
		c-0.139-3.512-1.336-6.91-3.479-9.863c-2.809-3.873-6.967-6.478-11.717-7.34l-0.104-0.021c-4.76-0.84-9.65,0.197-13.621,2.879
		c-1.787,1.209-3.32,2.703-4.561,4.441c-2.227-1.514-4.727-2.523-7.492-3.012c-4.795-0.824-9.719,0.193-13.719,2.848
		c-3.658,2.43-6.281,6.072-7.385,10.26c-0.064,0.262-0.121,0.508-0.166,0.762l-0.764,4.358c-0.062,0.158-0.107,0.324-0.135,0.484
		L242.492,98.81l-15.85-26.543c-1.459-2.441-3.322-4.549-5.539-6.266c-2.783-2.146-6.047-3.598-9.436-4.197
		c-2.205-0.389-4.484-0.428-6.754-0.102l-1.021,0.172c-1.469,0.283-2.928,0.732-4.334,1.336c-0.998,0.434-1.975,0.945-2.904,1.529
		c-1.998,1.252-3.771,2.814-5.273,4.645c-2.203,2.693-3.76,5.951-4.502,9.426c-1.199,5.637-0.232,11.471,2.727,16.428l9.027,15.111
		c0.129,0.271,0.271,0.545,0.432,0.811l14.934,25.012c0.199,0.33,0.402,0.648,0.617,0.969c0.049,0.072,0.102,0.141,0.107,0.141
		l24.793,41.623l-3.561,20.188c-0.422,2.402,1.27,4.715,3.771,5.156l88.549,15.613c0.279,0.051,0.564,0.074,0.846,0.074
		c0.871,0,1.719-0.236,2.447-0.686c1.068-0.658,1.803-1.73,2.018-2.941l26.141-148.252
		C360.573,63.263,359.444,58.437,356.551,54.466z M265.405,40.984c0.029-0.086,0.047-0.172,0.062-0.266l3.42-19.385l0.1-0.547
		c0.352-1.264,1.137-2.33,2.273-3.086c1.338-0.889,3.004-1.229,4.633-0.938c1.65,0.289,3.082,1.164,4.039,2.463
		c0.832,1.125,1.203,2.432,1.078,3.736l-12.123,68.746c-0.035,0.209-0.047,0.418-0.037,0.605c0.027,1.229,0.912,2.273,2.105,2.482
		l7.283,1.285c1.397,0.248,2.703-0.709,2.957-2.061c0.012-0.049,0.021-0.1,0.027-0.139l2.201-12.479
		c0.01-0.053,0.018-0.105,0.018-0.121l10.809-61.295l0.635-3.447c0.379-1.408,1.084-2.469,2.098-3.156
		c1.309-0.885,2.932-1.221,4.52-0.943c1.604,0.283,2.998,1.144,3.93,2.43c0.885,1.219,1.209,2.672,0.939,4.203l-2.076,11.797
		c-0.045,0.189-0.088,0.381-0.123,0.574l-0.06,0.357c-0.022,0.084-0.047,0.221-0.07,0.355l-3.414,19.361
		c-0.023,0.129-0.035,0.256-0.031,0.312l-1.055,5.979c-0.016,0.068-0.023,0.141-0.023,0.164l-6.711,38.021
		c-0.121,0.68,0.027,1.367,0.414,1.936c0.391,0.568,0.975,0.945,1.648,1.064l7.287,1.283c1.408,0.246,2.719-0.719,2.967-2.111
		l11.488-65.121c0.418-0.973,1.111-1.805,2.01-2.408c1.316-0.887,2.949-1.221,4.545-0.941c1.611,0.283,3.012,1.148,3.947,2.436
		c0.777,1.064,1.148,2.297,1.084,3.5l-0.201,1.146c-0.035,0.184-0.047,0.373-0.041,0.562l-11.092,62.896
		c-0.246,1.41,0.682,2.756,2.066,3l7.096,1.25c1.42,0.25,2.758-0.719,3.002-2.105l0.877-4.973c0.055-0.148,0.098-0.301,0.121-0.453
		l6.104-34.611c0.422-0.857,1.07-1.6,1.885-2.146c1.316-0.887,2.945-1.223,4.543-0.943c1.611,0.285,3.014,1.15,3.947,2.436
		c0.754,1.033,1.125,2.234,1.086,3.4l-5.129,29.135c-0.055,0.145-0.098,0.295-0.123,0.451l-1.721,9.748
		c-0.027,0.158-0.039,0.316-0.031,0.387l-13.922,78.955l-77.891-13.67l-22.734-38.131c-0.098-0.342-0.264-0.654-0.492-0.93
		c-0.096-0.115-0.188-0.238-0.256-0.328l-9.32-15.627c-0.107-0.182-0.232-0.346-0.373-0.488l-5.537-9.262
		c-0.055-0.15-0.125-0.299-0.211-0.445l-9.486-15.887c-1.363-2.287-1.809-4.982-1.256-7.59c0.344-1.602,1.02-3.025,2.004-4.236
		c0.641-0.779,1.404-1.451,2.273-1.998c0.395-0.248,0.807-0.465,1.227-0.645c0.539-0.236,1.115-0.414,1.697-0.531l0.508-0.084
		c0.873-0.125,1.803-0.107,2.693,0.049c1.418,0.25,2.734,0.84,3.918,1.756c0.975,0.748,1.801,1.686,2.457,2.787l17.385,29.119
		c0.049,0.084,0.101,0.164,0.133,0.203l2.811,4.695c0.041,0.068,0.082,0.131,0.107,0.164l4.145,6.94
		c0.92,1.529,2.455,2.586,4.215,2.896c0.355,0.064,0.719,0.096,1.082,0.096c1.084,0,2.162-0.281,3.113-0.811
		c1.361-0.752,2.379-1.98,2.865-3.453c0.041-0.123,0.07-0.246,0.094-0.373L265.405,40.984z"/>
</g>
</svg>
