<?xml version="1.0" encoding="iso-8859-1"?>
<!-- Generator: Adobe Illustrator 17.1.0, SVG Export Plug-In . SVG Version: 6.00 Build 0)  -->
<!DOCTYPE svg PUBLIC "-//W3C//DTD SVG 1.1//EN" "http://www.w3.org/Graphics/SVG/1.1/DTD/svg11.dtd">
<svg version="1.1" id="Layer_1" xmlns="http://www.w3.org/2000/svg" xmlns:xlink="http://www.w3.org/1999/xlink" x="0px" y="0px"
	 viewBox="0 0 340.354 278.084" style="enable-background:new 0 0 340.354 278.084;" xml:space="preserve">
<g id="FOOTBALL_JERSEY">
	<path d="M3.82,63.959l4.574,6.664l56.803-41.02l0.418-0.336c1.727-1.285,17.375-12.54,35.975-12.59l27.73-1.104
		c-3.666-6.157-5.434-13.04-5.521-15.573c-10.188,0-18.082,0-22.086,0C75.669,0,55.165,16.265,55.165,16.265L1.841,53.603
		c-0.938,0.657-1.576,1.66-1.775,2.789c-0.199,1.128,0.059,2.29,0.715,3.227L3.82,63.959z"/>
	<path d="M336.533,63.959l-4.574,6.664l-56.803-41.02l-0.418-0.336c-1.727-1.285-17.373-12.54-35.973-12.59l-27.73-1.104
		c3.664-6.157,5.434-13.04,5.52-15.573c10.189,0,18.084,0,22.086,0c26.043,0,46.549,16.265,46.549,16.265l53.322,37.338
		c0.939,0.657,1.578,1.66,1.777,2.789c0.199,1.128-0.059,2.29-0.717,3.227L336.533,63.959z"/>
	<path d="M267.972,39.217l-0.512-0.406c-1.414-1.03-14.32-10.133-28.82-10.133l-39.822-1.582c-7.41,4.255-16.609,6.796-26.598,6.796
		l0,0h-0.002c-0.039,0-0.076,0.004-0.117,0.004c-0.023,0-0.053-0.004-0.076-0.004h-0.002l0,0c-0.635,0-1.248,0.051-1.846,0.133
		c-0.6-0.082-1.211-0.133-1.846-0.133h-0.002l0,0c-0.025,0-0.053,0.004-0.078,0.004c-0.039,0-0.076-0.004-0.117-0.004l0,0h-0.002
		c-9.986,0-19.186-2.541-26.596-6.796l-39.824,1.582c-14.498,0-27.406,9.103-28.818,10.133l-0.512,0.406L15.187,80.519
		l23.645,34.443c0.105,0.15,0.219,0.292,0.338,0.424c0.84,0.928,2.014,1.42,3.205,1.42c0,0,0,0,0.002,0
		c0.855,0,1.719-0.254,2.475-0.782l37.451-25.742v104.243v55.467v5.841c2.748,2.445,6.555,5.227,11.766,7.979
		c5.676,2.999,12.146,5.526,19.379,7.585c14.73,4.443,33.449,6.689,55.947,6.689c0.027,0,0.053,0,0.078,0c0.041,0,0.078,0,0.117,0
		c0.199,0,0.391-0.004,0.588-0.005c0.195,0.001,0.389,0.005,0.586,0.005c0.039,0,0.078,0,0.117,0c0.027,0,0.053,0,0.08,0
		c22.498,0,41.217-2.245,55.945-6.689c7.234-2.059,13.705-4.586,19.381-7.585c5.209-2.752,9.018-5.533,11.764-7.979v-5.841v-55.467
		V90.281l37.453,25.742c0.754,0.528,1.619,0.782,2.475,0.782l0,0c1.191,0,2.367-0.492,3.205-1.42
		c0.121-0.132,0.232-0.274,0.338-0.424l23.645-34.443L267.972,39.217z M227.214,93.658c0,0.435-0.193,0.844-0.518,1.106
		c-0.256,0.207-6.34,5.059-11.461,5.059c-5.123,0-11.205-4.852-11.463-5.059c-0.322-0.263-0.516-0.672-0.516-1.106V75.983
		c0-0.767,0.586-1.389,1.307-1.389h21.344c0.721,0,1.307,0.622,1.307,1.389V93.658z"/>
</g>
</svg>
