<?xml version="1.0" encoding="iso-8859-1"?>
<!-- Generator: Adobe Illustrator 17.1.0, SVG Export Plug-In . SVG Version: 6.00 Build 0)  -->
<!DOCTYPE svg PUBLIC "-//W3C//DTD SVG 1.1//EN" "http://www.w3.org/Graphics/SVG/1.1/DTD/svg11.dtd">
<svg version="1.1" id="Layer_1" xmlns="http://www.w3.org/2000/svg" xmlns:xlink="http://www.w3.org/1999/xlink" x="0px" y="0px"
	 viewBox="0 0 283.465 350.693" style="enable-background:new 0 0 283.465 350.693;" xml:space="preserve">
<g id="FOOTBALL">
	<path id="FOOTBALL_1_" d="M246.043,304.905c0.275-0.298,0.551-0.596,0.822-0.9c0.625-0.687,1.242-1.382,1.854-2.084
		c0.26-0.304,0.518-0.605,0.777-0.909c0.428-0.502,0.852-1,1.271-1.505c0.274-0.332,0.547-0.664,0.818-0.996
		c0.4-0.492,0.799-0.987,1.197-1.483c0.262-0.332,0.523-0.667,0.787-0.999c0.414-0.533,0.824-1.072,1.23-1.608
		c0.227-0.301,0.457-0.599,0.682-0.902c0.545-0.733,1.084-1.471,1.615-2.217c0.08-0.109,0.16-0.216,0.238-0.325
		c0.002-0.004,0.008-0.007,0.008-0.01l0,0c16.447-23.146,26.121-51.449,26.121-82.005c0-1.119-0.018-2.232-0.045-3.345
		c-0.006-0.354-0.021-0.708-0.031-1.056c-0.023-0.771-0.051-1.539-0.086-2.308c-0.02-0.395-0.039-0.789-0.062-1.185
		c-0.041-0.752-0.088-1.508-0.143-2.257c-0.027-0.363-0.047-0.727-0.078-1.091c-0.076-0.98-0.164-1.965-0.26-2.94
		c-0.014-0.131-0.025-0.27-0.039-0.4c-0.108-1.051-0.227-2.098-0.358-3.138c-0.049-0.389-0.102-0.774-0.154-1.16
		c-0.092-0.692-0.189-1.386-0.293-2.075c-0.062-0.436-0.129-0.868-0.195-1.304c-0.108-0.655-0.213-1.311-0.326-1.962
		c-0.072-0.424-0.147-0.852-0.221-1.276c-0.139-0.755-0.285-1.511-0.436-2.263c-0.096-0.474-0.189-0.95-0.287-1.42
		c-0.172-0.816-0.348-1.63-0.531-2.441c-0.109-0.471-0.223-0.94-0.334-1.414c-0.137-0.555-0.272-1.112-0.41-1.668
		c-0.127-0.508-0.26-1.016-0.391-1.52c-0.137-0.515-0.275-1.025-0.416-1.536c-0.143-0.518-0.287-1.037-0.436-1.555
		c-0.141-0.489-0.287-0.975-0.432-1.458c-0.307-1.019-0.623-2.034-0.951-3.04c-0.127-0.395-0.252-0.79-0.383-1.182
		c-0.197-0.589-0.404-1.176-0.609-1.762c-0.135-0.386-0.268-0.768-0.404-1.153c-0.215-0.593-0.434-1.188-0.656-1.783
		c-0.131-0.351-0.264-0.699-0.4-1.051c-0.236-0.62-0.475-1.238-0.721-1.858c-0.096-0.235-0.195-0.474-0.293-0.712
		c-0.902-2.219-1.857-4.41-2.867-6.572c-0.102-0.217-0.201-0.436-0.303-0.649c-0.318-0.674-0.643-1.342-0.973-2.009
		c-0.1-0.207-0.201-0.411-0.305-0.614c-0.35-0.699-0.701-1.396-1.059-2.088c-0.021-0.038-0.043-0.075-0.062-0.113
		c-1.223-2.35-2.51-4.664-3.859-6.93c-0.051-0.085-0.1-0.173-0.152-0.254c-0.422-0.712-0.854-1.417-1.287-2.119
		c-0.07-0.109-0.139-0.22-0.205-0.326c-1.889-3.021-3.883-5.965-5.986-8.826c-0.014-0.02-0.023-0.038-0.037-0.051h-0.002
		c-18.795-25.567-45.965-44.591-77.465-53.035c-0.117-0.031-0.23-0.062-0.348-0.095c-0.766-0.203-1.535-0.4-2.307-0.592
		c-0.221-0.054-0.439-0.106-0.66-0.16c-0.75-0.182-1.502-0.36-2.258-0.529c-0.172-0.038-0.346-0.075-0.518-0.113
		c-1.574-0.348-3.158-0.674-4.752-0.969c-0.121-0.019-0.234-0.044-0.354-0.065c-0.629-0.113-1.26-0.22-1.893-0.326
		c-0.432-0.072-0.863-0.147-1.297-0.213c-0.578-0.094-1.156-0.179-1.736-0.267c-0.512-0.075-1.025-0.145-1.537-0.216
		c-0.531-0.069-1.062-0.142-1.594-0.21c-0.691-0.085-1.383-0.16-2.076-0.235c-0.479-0.054-0.961-0.106-1.441-0.153
		c-0.92-0.092-1.846-0.173-2.77-0.245c-0.398-0.031-0.797-0.06-1.195-0.088c-0.719-0.05-1.434-0.094-2.154-0.135
		c-0.412-0.022-0.822-0.044-1.232-0.062c-0.752-0.034-1.508-0.065-2.262-0.088c-0.359-0.009-0.717-0.021-1.076-0.028
		c-1.107-0.028-2.219-0.044-3.332-0.044c-1.111,0-2.219,0.016-3.322,0.041c-0.358,0.01-0.715,0.022-1.07,0.031
		c-0.756,0.022-1.508,0.054-2.26,0.088c-0.408,0.019-0.818,0.041-1.228,0.06c-0.721,0.044-1.441,0.088-2.16,0.138
		c-0.395,0.028-0.789,0.054-1.182,0.085c-1.027,0.081-2.051,0.169-3.072,0.272c-0.441,0.044-0.877,0.098-1.316,0.145
		c-0.613,0.068-1.227,0.135-1.838,0.21c-0.561,0.069-1.117,0.147-1.676,0.22c-0.475,0.065-0.947,0.128-1.418,0.197
		c-0.611,0.091-1.223,0.182-1.83,0.278c-0.367,0.057-0.73,0.123-1.094,0.183c-2.406,0.397-4.789,0.858-7.15,1.379
		c-0.129,0.028-0.26,0.057-0.389,0.085c-0.807,0.182-1.611,0.369-2.416,0.563c-0.131,0.035-0.264,0.062-0.395,0.098
		c-36.361,8.901-67.215,31.834-86.498,62.73c-0.045,0.075-0.092,0.15-0.137,0.223c-0.455,0.73-0.902,1.464-1.342,2.2
		c-0.029,0.047-0.055,0.088-0.082,0.135c-1.795,3.019-3.48,6.106-5.053,9.266c-0.088,0.176-0.174,0.351-0.262,0.526
		c-0.342,0.689-0.678,1.383-1.008,2.081c-0.084,0.179-0.166,0.357-0.25,0.54c-1.043,2.231-2.027,4.488-2.959,6.776
		c-0.072,0.185-0.15,0.37-0.225,0.558c-0.258,0.643-0.506,1.282-0.752,1.931c-0.123,0.323-0.25,0.646-0.371,0.972
		c-0.228,0.611-0.453,1.23-0.676,1.844c-0.129,0.357-0.254,0.718-0.379,1.075c-0.215,0.611-0.428,1.216-0.631,1.83
		c-0.109,0.323-0.211,0.655-0.318,0.981c-0.359,1.097-0.701,2.2-1.035,3.307c-0.135,0.451-0.272,0.902-0.402,1.351
		c-0.154,0.54-0.303,1.075-0.449,1.611c-0.137,0.495-0.269,0.984-0.4,1.477c-0.137,0.521-0.271,1.044-0.402,1.564
		c-0.135,0.536-0.266,1.075-0.395,1.614c-0.117,0.485-0.234,0.972-0.346,1.46c-0.18,0.781-0.348,1.571-0.514,2.354
		c-0.105,0.508-0.209,1.021-0.31,1.529c-0.147,0.74-0.291,1.477-0.424,2.223c-0.08,0.43-0.152,0.862-0.228,1.301
		c-0.111,0.643-0.219,1.288-0.32,1.938c-0.068,0.439-0.137,0.877-0.201,1.312c-0.104,0.687-0.199,1.377-0.289,2.066
		c-0.053,0.389-0.107,0.773-0.154,1.166c-0.131,1.044-0.252,2.087-0.359,3.138c-0.016,0.135-0.023,0.273-0.037,0.404
		c-0.098,0.975-0.184,1.952-0.262,2.934c-0.029,0.363-0.051,0.73-0.078,1.097c-0.053,0.749-0.1,1.502-0.143,2.254
		c-0.022,0.395-0.043,0.79-0.061,1.185c-0.035,0.768-0.062,1.536-0.086,2.308c-0.012,0.348-0.025,0.702-0.033,1.056
		C0.018,206.729,0,207.842,0,208.961c0,33.73,11.791,64.699,31.465,89.035c0.1,0.126,0.201,0.251,0.303,0.38
		c0.494,0.604,0.994,1.206,1.498,1.805c0.143,0.167,0.285,0.333,0.426,0.505c0.504,0.593,1.012,1.179,1.525,1.768
		c0.117,0.128,0.233,0.257,0.35,0.392c2.332,2.636,4.762,5.181,7.281,7.639c0.119,0.116,0.238,0.235,0.361,0.351
		c0.566,0.552,1.139,1.091,1.715,1.63c0.148,0.139,0.297,0.279,0.447,0.417c0.586,0.543,1.174,1.082,1.77,1.617
		c0.092,0.082,0.182,0.16,0.273,0.242c2.666,2.379,5.422,4.657,8.264,6.833c0.115,0.088,0.23,0.179,0.348,0.263
		c0.65,0.499,1.307,0.991,1.969,1.471c0.129,0.097,0.258,0.191,0.389,0.288c0.682,0.495,1.367,0.987,2.059,1.47
		c0.025,0.02,0.049,0.038,0.076,0.057c3.01,2.106,6.108,4.101,9.283,5.975c0.094,0.057,0.188,0.112,0.283,0.169
		c0.74,0.433,1.486,0.862,2.234,1.282c0.094,0.054,0.188,0.106,0.279,0.16c4.029,2.25,8.178,4.319,12.437,6.178
		c0.076,0.034,0.154,0.065,0.232,0.103c0.82,0.357,1.645,0.705,2.477,1.05c0.051,0.02,0.104,0.044,0.158,0.062
		c16.598,6.821,34.771,10.592,53.828,10.592c26.283,0,50.887-7.159,71.986-19.625c0.113-0.065,0.229-0.138,0.344-0.207
		c0.721-0.423,1.435-0.858,2.146-1.301c0.123-0.075,0.25-0.153,0.369-0.229c2.99-1.862,5.9-3.83,8.731-5.905
		c0.191-0.138,0.383-0.276,0.574-0.417c0.568-0.42,1.129-0.84,1.691-1.27c0.262-0.201,0.523-0.404,0.783-0.602
		c0.531-0.414,1.061-0.825,1.586-1.245c0.281-0.219,0.561-0.448,0.842-0.677c0.51-0.414,1.023-0.827,1.529-1.247
		c0.262-0.217,0.52-0.442,0.779-0.662c0.953-0.802,1.895-1.62,2.824-2.447c0.277-0.245,0.555-0.489,0.832-0.737
		c0.416-0.376,0.828-0.762,1.24-1.144c0.357-0.329,0.713-0.661,1.068-0.997c0.391-0.363,0.777-0.736,1.162-1.109
		c0.373-0.36,0.746-0.728,1.115-1.091c0.367-0.36,0.732-0.725,1.094-1.091c0.393-0.398,0.783-0.796,1.17-1.197
		c0.332-0.345,0.666-0.684,0.994-1.031C245.08,305.945,245.562,305.425,246.043,304.905z M201.66,280.741l-25.07-34.169
		l15.457-47.569l39.889-13.065l34.617,33.793c-1.625,19.18-7.566,37.473-17.363,53.731L201.66,280.741z M236.248,126.725
		l-7.973,48.033l-40.041,13.111l-40.49-29.42v-42.146l43.277-22.587c14.494,6.203,27.814,15.174,39.301,26.658
		C232.379,122.434,234.352,124.553,236.248,126.725z M92.584,93.659l43.395,22.644v42.146l-40.572,29.477l-40.215-13.168
		l-7.975-48.033c1.895-2.172,3.869-4.291,5.928-6.351C64.666,108.852,78.037,99.859,92.584,93.659z M34.217,273.369
		c-9.766-16.237-15.683-34.492-17.305-53.638l34.615-33.793l40.18,13.155l15.514,47.748l-24.873,33.899L34.217,273.369z
		 M113.098,330.968l-21.266-43.265l24.863-33.888h50.617l24.863,33.888l-21.197,43.117c-9.469,2.257-19.268,3.423-29.248,3.423
		C131.967,334.243,122.377,333.128,113.098,330.968z"/>
	<path d="M267.102,96.693l-16.829-16.828c-0.411-0.412-1.078-0.412-1.49,0l-9.754,9.754c-0.412,0.41-0.412,1.078,0,1.49l3.943,3.943
		l-7.267,7.268c-0.412,0.412-0.412,1.08-0.001,1.492l7.451,7.449c0.411,0.412,1.078,0.412,1.49,0l7.267-7.266l3.944,3.943
		c0.41,0.41,1.078,0.408,1.489,0l9.756-9.758C267.512,97.771,267.512,97.105,267.102,96.693z"/>
	<path d="M141.253,0c-22.343,0-40.521,18.178-40.521,40.521c0,22.344,18.178,40.52,40.521,40.52s40.52-18.176,40.52-40.52
		C181.773,18.178,163.596,0,141.253,0z M149.798,67.744V54.928h7.54c0.787,0,1.425-0.637,1.425-1.424V34.855
		c0-0.785-0.638-1.424-1.425-1.424h-32.17c-0.786,0-1.425,0.639-1.425,1.424v18.648c0,0.787,0.639,1.424,1.425,1.424h7.54v12.816
		c-11.571-3.641-19.987-14.467-19.987-27.223c0-15.734,12.8-28.533,28.532-28.533s28.532,12.799,28.532,28.533
		C169.785,53.277,161.369,64.104,149.798,67.744z"/>
</g>
</svg>
