<?xml version="1.0" encoding="iso-8859-1"?>
<!-- Generator: Adobe Illustrator 17.1.0, SVG Export Plug-In . SVG Version: 6.00 Build 0)  -->
<!DOCTYPE svg PUBLIC "-//W3C//DTD SVG 1.1//EN" "http://www.w3.org/Graphics/SVG/1.1/DTD/svg11.dtd">
<svg version="1.1" id="Layer_1" xmlns="http://www.w3.org/2000/svg" xmlns:xlink="http://www.w3.org/1999/xlink" x="0px" y="0px"
	 viewBox="0 0 256.656 348.661" style="enable-background:new 0 0 256.656 348.661;" xml:space="preserve">
<g id="PLAYER_1_">
	<g id="PLAYER">
		<g id="head">
			<g id="eyes_and_mouth_4_">
				<g id="eyes_4_">
					<circle cx="106.687" cy="119.434" r="12.683"/>
					<circle cx="151.522" cy="119.434" r="12.683"/>
				</g>
				<path id="mouth" d="M157.74,149.904c-0.744-0.478-1.603-0.73-2.484-0.73c-1.58,0-3.032,0.794-3.885,2.122
					c-5.211,8.116-13.535,12.962-22.266,12.962c-8.733,0-17.057-4.846-22.266-12.962c-0.853-1.328-2.304-2.123-3.885-2.123
					c-0.881,0-1.74,0.254-2.488,0.732c-1.035,0.667-1.75,1.696-2.012,2.898c-0.264,1.203-0.041,2.438,0.625,3.473
					c6.912,10.77,18.137,17.202,30.025,17.202c11.884,0,23.109-6.432,30.025-17.204C160.502,154.136,159.877,151.277,157.74,149.904
					z"/>
			</g>
			<path id="face" d="M201.624,65.176c-10.317-14.988-24.559-26.359-41.201-32.908c-5.132-6.839-8.015-12.743-8.341-17.092
				c-0.061-0.824-0.734-1.458-1.537-1.458c-0.016,0-0.029,0-0.042,0c-9.192,0.241-15.53,8.761-17.884,12.522
				c-0.089-0.07-0.182-0.144-0.275-0.218c-2.937-2.328-8.402-6.662-7.539-18.442c0.034-0.468-0.137-0.928-0.468-1.254
				c-0.29-0.286-0.675-0.442-1.072-0.442c-0.057,0-0.112,0.003-0.169,0.009c-13.33,1.499-20.338,14.005-22.445,18.5
				c-2.706-1.716-8.84-7.302-9.398-22.869c-0.019-0.538-0.305-1.03-0.758-1.303C90.252,0.073,89.98,0,89.709,0
				c-0.238,0-0.477,0.058-0.697,0.17C78.503,5.612,72.095,14.243,69.965,25.823c-1.611,8.752-0.314,17.145,0.773,21.894
				c-20.291,17.487-31.906,42.95-31.906,70.023c0,50.49,40.162,91.566,89.531,91.566c49.369,0,89.531-41.076,89.531-91.566
				C217.895,98.813,212.269,80.636,201.624,65.176z M128.363,197.021c-24.426,0-47.72-12.037-62.325-32.2
				c-0.017-0.027-0.036-0.055-0.055-0.082c-0.219-0.294-0.428-0.594-0.638-0.895l-0.287-0.412l-0.094-0.132
				c-0.324-0.46-0.65-0.92-0.965-1.387c-0.292-0.437-0.58-0.885-0.868-1.335l-0.063-0.099c-0.319-0.498-0.633-0.994-0.942-1.5
				c-0.296-0.483-0.587-0.975-0.874-1.468c-0.308-0.527-0.605-1.062-0.901-1.6l-0.181-0.327c-0.203-0.368-0.407-0.737-0.604-1.11
				c-0.35-0.671-0.682-1.348-1.016-2.027c-0.277-0.568-0.553-1.141-0.819-1.719c-0.423-0.923-0.765-1.688-1.067-2.408
				c-0.133-0.317-0.261-0.645-0.39-0.973l-0.157-0.398c-0.258-0.645-0.51-1.293-0.754-1.945c-0.174-0.476-0.344-0.958-0.51-1.44
				c-0.233-0.669-0.451-1.332-0.665-2.002l-0.093-0.296c-0.118-0.367-0.233-0.734-0.344-1.105c-0.228-0.77-0.443-1.554-0.652-2.34
				c-0.039-0.154-0.083-0.315-0.127-0.477c-0.058-0.208-0.115-0.416-0.169-0.628c-0.282-1.13-0.546-2.29-0.778-3.447
				c-0.04-0.192-0.073-0.383-0.107-0.574l-0.073-0.401c-0.146-0.773-0.313-1.689-0.46-2.626c-0.047-0.311-0.092-0.624-0.135-0.939
				l-0.053-0.381c-0.109-0.788-0.209-1.582-0.298-2.381c-0.048-0.45-0.095-0.9-0.137-1.35c-0.069-0.755-0.13-1.562-0.19-2.544
				l-0.029-0.449c-0.016-0.246-0.033-0.493-0.044-0.738c-0.06-1.394-0.091-2.619-0.091-3.75c0-0.978,0.029-1.946,0.074-3.08
				c5.296-25.04,25.45-38.225,28.568-41.679c25.562,25.412,102.942,6.464,103.623,6.212c0.361,0.933,22.67,35.604,23.209,39.316
				C205.796,161.542,171.044,197.021,128.363,197.021z"/>
		</g>
		<g id="jersey">
			<path d="M77.782,211.35c-2.329,0.853-4.616,1.766-6.854,2.749c-15.843,6.965-29.382,17.2-40.245,30.421
				C10.61,268.953,0,303.143,0,343.397c0,2.908,2.342,5.264,5.231,5.264h9.779c-0.364-10.03-0.284-15.994-0.097-19.484
				c-0.139-0.611-0.189-1.255-0.137-1.913c0.072-0.901,0.15-1.798,0.236-2.689c2.696-28.476,11.859-52.945,26.496-70.759
				c9.408-11.448,21.148-20.319,34.894-26.362c2.979-1.309,6.06-2.481,9.235-3.532C82.563,220.116,79.92,215.897,77.782,211.35z"/>
			<path d="M225.972,244.52c-10.864-13.221-24.402-23.456-40.245-30.421c-2.218-0.974-4.484-1.88-6.791-2.729
				c-2.153,4.576-4.819,8.82-7.924,12.644c3.075,1.026,6.06,2.17,8.947,3.439c13.748,6.044,25.487,14.913,34.895,26.361
				c14.636,17.814,23.799,42.283,26.499,70.764c0.085,0.887,0.163,1.783,0.235,2.685c0.053,0.661,0.002,1.309-0.14,1.926
				c0.17,3.227,0.276,9.164-0.096,19.472h10.072c2.89,0,5.231-2.355,5.231-5.264C256.656,303.143,246.045,268.954,225.972,244.52z"
				/>
			<path d="M228.716,328.35c-0.058-0.637-0.016-1.263,0.11-1.86c-0.021-0.238-0.043-0.475-0.066-0.712
				c-2.461-25.968-10.649-48.074-23.679-63.933c-8.136-9.9-18.301-17.575-30.214-22.814c-4.501-1.978-9.287-3.617-14.33-4.931
				c-9.143,6.818-20.223,10.821-32.174,10.821c-11.99,0-23.104-4.031-32.266-10.891c-5.143,1.323-10.02,2.985-14.602,5
				c-11.912,5.238-22.078,12.913-30.213,22.814c-13.031,15.858-21.219,37.964-23.678,63.926c-0.024,0.241-0.046,0.482-0.066,0.722
				c0.124,0.595,0.164,1.216,0.109,1.852c-0.156,1.799-0.46,7.36,0.02,20.315h201.027
				C229.176,335.666,228.871,330.135,228.716,328.35z M182.886,323.112c0,0.412-0.183,0.8-0.491,1.049
				c-0.24,0.195-5.999,4.787-10.846,4.787c-4.848,0-10.604-4.592-10.848-4.787c-0.306-0.249-0.488-0.637-0.488-1.049v-16.726
				c0-0.727,0.555-1.314,1.237-1.314h20.198c0.683,0,1.237,0.588,1.237,1.314V323.112z"/>
		</g>
	</g>
</g>
</svg>
