<?xml version="1.0" encoding="iso-8859-1"?>
<!-- Generator: Adobe Illustrator 17.1.0, SVG Export Plug-In . SVG Version: 6.00 Build 0)  -->
<!DOCTYPE svg PUBLIC "-//W3C//DTD SVG 1.1//EN" "http://www.w3.org/Graphics/SVG/1.1/DTD/svg11.dtd">
<svg version="1.1" id="Layer_1" xmlns="http://www.w3.org/2000/svg" xmlns:xlink="http://www.w3.org/1999/xlink" x="0px" y="0px"
	 viewBox="0 0 282.475 349.162" style="enable-background:new 0 0 282.475 349.162;" xml:space="preserve">
<g id="GOALKEEPER_1_">
	<g id="jersey_1_">
		<path d="M209.898,346.27v-8.027l-16.055-18.611c-0.309-0.324-0.59-0.633-0.848-0.934l-11.59-13.404
			c-0.213-0.246-0.422-0.502-0.623-0.762l-6.746-7.805c-4.287-4.959-6.52-11.291-6.289-17.844c0.147-4.062,1.264-8.065,3.231-11.566
			c1.342-2.393,3.055-4.539,5.113-6.396c0.945-0.854,1.957-1.633,3.02-2.334c1.498-0.982,3.098-1.803,4.758-2.436
			c0.031-0.014,0.064-0.025,0.096-0.037l0.148-0.055c0.057-0.021,0.113-0.041,0.17-0.062l0.332-0.117
			c0.045-0.016,0.088-0.031,0.133-0.045l0.123-0.043c0.047-0.016,0.094-0.031,0.143-0.049c2.525-0.828,5.148-1.248,7.795-1.248
			c2.102,0,4.201,0.277,6.246,0.807c-6.953-6.787-15.053-12.252-24.187-16.268c-4.502-1.979-9.289-3.617-14.332-4.932
			c-9.141,6.818-20.221,10.822-32.172,10.822c-11.992,0-23.105-4.031-32.266-10.893c-5.142,1.324-10.02,2.988-14.601,5.002
			c-11.912,5.238-22.078,12.912-30.213,22.814c-13.031,15.857-21.219,37.963-23.68,63.926c-0.023,0.24-0.045,0.482-0.064,0.721
			c0.123,0.594,0.164,1.215,0.109,1.852c-0.158,1.799-0.461,7.361,0.02,20.316h182.445
			C209.982,347.881,209.898,347.086,209.898,346.27z"/>
		<path d="M203.213,241.963v-3.23c0-0.271,0.008-0.541,0.023-0.809v-1.74c0-0.105,0.002-0.209,0.002-0.309v-0.143
			c0-0.027,0-0.055,0-0.082c0.004-0.41,0.02-0.814,0.049-1.234c0.004-0.055,0.008-0.109,0.012-0.164
			c0.258-3.051,1.145-5.982,2.549-8.654c-6.209-4.488-12.926-8.334-20.121-11.498c-2.219-0.975-4.484-1.879-6.793-2.729
			c-2.152,4.578-4.818,8.82-7.922,12.643c3.074,1.027,6.059,2.172,8.947,3.441C188.514,231.215,196.291,236.072,203.213,241.963z"/>
		<path d="M77.781,211.352c-2.328,0.852-4.617,1.766-6.854,2.748c-15.842,6.965-29.381,17.201-40.244,30.422
			C10.609,268.953,0,303.143,0,343.398c0,2.906,2.342,5.264,5.231,5.264h9.779c-0.363-10.031-0.283-15.994-0.096-19.484
			c-0.141-0.611-0.191-1.256-0.137-1.914c0.072-0.9,0.15-1.797,0.234-2.689c2.697-28.477,11.861-52.945,26.498-70.758
			c9.406-11.449,21.148-20.318,34.894-26.363c2.977-1.309,6.059-2.482,9.234-3.531C82.563,220.117,79.92,215.898,77.781,211.352z"/>
	</g>
	<path id="hand_3_" d="M282.475,254.584c0-3.02-1.209-5.846-3.402-7.959c-2.152-2.076-5.002-3.219-8.068-3.219
		c-1.119,0.004-2.221,0.166-3.285,0.484v-4.986c0-3.018-1.209-5.844-3.404-7.959c-2.15-2.076-5-3.221-8.023-3.221
		c-1.26,0-2.492,0.199-3.678,0.594c-0.488-2.043-1.564-3.912-3.135-5.43c-2.147-2.078-4.99-3.221-8.006-3.221
		c-3.014,0-5.855,1.145-8.004,3.223c-0.916,0.887-1.662,1.904-2.223,3.029c-1.473-0.633-3.047-0.953-4.719-0.953
		c-3.031,0.012-5.895,1.152-8.062,3.213c-1.971,1.877-3.182,4.385-3.408,7.066c-0.012,0.168-0.018,0.324-0.018,0.486l-0.002,2.705
		c-0.018,0.092-0.025,0.189-0.025,0.295v46.164l-11.963-13.842c-1.15-1.33-2.512-2.412-4.043-3.219
		c-3.184-1.67-6.92-1.994-10.32-0.879l-0.604,0.215c-0.865,0.33-1.703,0.76-2.496,1.279c-0.555,0.365-1.096,0.783-1.605,1.242
		c-1.086,0.982-1.998,2.123-2.711,3.395c-1.051,1.875-1.65,4.025-1.729,6.219c-0.125,3.559,1.09,7.004,3.422,9.701l7,8.094
		c0.109,0.156,0.227,0.307,0.355,0.457l11.604,13.422c0.156,0.182,0.314,0.352,0.484,0.529c0.041,0.041,0.082,0.078,0.068,0.061
		l19.223,22.287v12.412c0,1.594,1.35,2.893,3.008,2.893h54.762c0.764,0,1.488-0.273,2.043-0.766c0.613-0.547,0.965-1.32,0.965-2.127
		v-80.775V254.584z M274.484,278.654v48.631l-47.877,0.039l-17.59-20.381c-0.107-0.209-0.258-0.398-0.432-0.545
		c-0.068-0.059-0.135-0.121-0.168-0.148l-7.24-8.383c-0.086-0.103-0.186-0.197-0.293-0.275l-4.264-4.918
		c-0.057-0.1-0.121-0.193-0.195-0.277l-7.371-8.525c-1.025-1.189-1.561-2.711-1.506-4.283c0.035-0.965,0.279-1.861,0.729-2.662
		c0.293-0.52,0.666-0.988,1.107-1.387c0.205-0.184,0.422-0.353,0.646-0.502c0.295-0.193,0.609-0.355,0.922-0.477l0.289-0.102
		c1.279-0.418,2.738-0.295,4.002,0.369c0.641,0.334,1.217,0.795,1.711,1.367l13.506,15.625c0.041,0.049,0.086,0.096,0.104,0.109
		l2.182,2.522c0.037,0.041,0.072,0.08,0.082,0.086l3.219,3.723c0.75,0.865,1.838,1.361,2.984,1.361c0.926,0,1.838-0.326,2.566-0.918
		c0.777-0.629,1.283-1.518,1.422-2.49c0.016-0.092,0.021-0.182,0.021-0.271l-0.002-47.613c0.006-0.055,0.008-0.113,0.008-0.172
		v-11.938l0.004-0.221l-0.002-0.152c0.072-0.746,0.41-1.426,0.977-1.965c1.355-1.291,3.744-1.285,5.09-0.002
		c0.58,0.551,0.92,1.25,0.979,1.982v42.516c0,0.143,0.016,0.285,0.045,0.408c0.166,0.826,0.891,1.426,1.721,1.426h4.504
		c0.955,0,1.742-0.789,1.758-1.834l-0.002-45.699l0.016-2.119c0.072-0.834,0.363-1.504,0.863-1.988
		c1.318-1.273,3.639-1.271,4.949-0.002c0.619,0.6,0.947,1.387,0.947,2.279l0.004,7.273c-0.01,0.125-0.014,0.252-0.014,0.377v0.209
		c-0.002,0.055-0.006,0.144-0.006,0.234v11.973c0,0.088,0.01,0.176,0.016,0.191l0.004,3.797l-0.004,23.518
		c0,0.475,0.182,0.92,0.51,1.256c0.332,0.338,0.773,0.523,1.242,0.523h4.508c0.967,0,1.754-0.799,1.754-1.779l0.004-40.252
		c0.141-0.58,0.447-1.111,0.889-1.537c1.328-1.277,3.658-1.273,4.979-0.002c0.543,0.523,0.877,1.182,0.957,1.842v0.709
		c0,0.121,0.012,0.242,0.037,0.361v38.879c0,0.98,0.787,1.779,1.754,1.779h4.387c0.98,0,1.777-0.799,1.777-1.779l-0.01-3.008
		c0.023-0.115,0.037-0.234,0.037-0.352v-21.377c0.152-0.516,0.443-0.988,0.842-1.373c1.324-1.279,3.658-1.273,4.975-0.004
		c0.527,0.51,0.857,1.148,0.949,1.781l0.008,17.982c-0.02,0.103-0.029,0.211-0.029,0.318v6.031
		C274.463,278.529,274.473,278.637,274.484,278.654z"/>
	<g id="head_1_">
		<g id="eyes_and_mouth_1_">
			<g id="eyes_1_">
				<circle cx="106.687" cy="119.434" r="12.683"/>
				<circle cx="151.521" cy="119.434" r="12.684"/>
			</g>
			<path id="mouth_1_" d="M157.738,149.904c-0.742-0.477-1.602-0.729-2.484-0.729c-1.578,0-3.031,0.793-3.883,2.121
				c-5.213,8.115-13.535,12.961-22.268,12.961c-8.732,0-17.057-4.846-22.266-12.961c-0.852-1.328-2.303-2.123-3.885-2.123
				c-0.879,0-1.738,0.254-2.486,0.732c-1.035,0.666-1.752,1.695-2.014,2.896c-0.264,1.203-0.039,2.438,0.625,3.475
				c6.914,10.77,18.139,17.201,30.025,17.201c11.885,0,23.109-6.432,30.027-17.203C160.502,154.137,159.877,151.277,157.738,149.904
				z"/>
		</g>
		<path id="face_1_" d="M201.625,65.176c-10.318-14.988-24.561-26.359-41.203-32.908c-5.131-6.84-8.014-12.742-8.34-17.092
			c-0.06-0.824-0.734-1.457-1.537-1.457c-0.018,0-0.029,0-0.043,0c-9.191,0.24-15.531,8.76-17.883,12.521
			c-0.09-0.07-0.184-0.143-0.277-0.219c-2.936-2.328-8.402-6.662-7.537-18.441c0.033-0.467-0.139-0.928-0.469-1.254
			c-0.289-0.287-0.674-0.443-1.072-0.443c-0.057,0-0.111,0.002-0.17,0.008c-13.328,1.5-20.338,14.006-22.443,18.502
			c-2.707-1.717-8.84-7.303-9.398-22.869c-0.02-0.539-0.307-1.031-0.758-1.305C90.252,0.074,89.981,0,89.709,0
			c-0.238,0-0.478,0.057-0.697,0.17c-10.51,5.443-16.918,14.074-19.049,25.654c-1.611,8.75-0.314,17.142,0.775,21.894
			C50.447,65.203,38.832,90.666,38.832,117.74c0,50.49,40.162,91.566,89.531,91.566c49.367,0,89.531-41.076,89.531-91.566
			C217.895,98.814,212.268,80.637,201.625,65.176z M128.363,197.021c-24.426,0-47.721-12.037-62.326-32.199
			c-0.018-0.027-0.035-0.057-0.055-0.082c-0.219-0.295-0.428-0.594-0.637-0.895l-0.287-0.412l-0.094-0.133
			c-0.324-0.459-0.65-0.918-0.965-1.387c-0.293-0.438-0.58-0.885-0.869-1.334l-0.062-0.1c-0.32-0.496-0.633-0.994-0.943-1.5
			c-0.295-0.482-0.586-0.975-0.873-1.467c-0.309-0.529-0.607-1.064-0.902-1.6l-0.18-0.328c-0.205-0.367-0.408-0.738-0.604-1.109
			c-0.35-0.672-0.684-1.348-1.016-2.027c-0.279-0.57-0.555-1.141-0.818-1.719c-0.426-0.924-0.766-1.688-1.068-2.408
			c-0.133-0.318-0.262-0.645-0.391-0.973l-0.158-0.398c-0.256-0.645-0.508-1.293-0.752-1.943c-0.174-0.477-0.344-0.959-0.51-1.441
			c-0.234-0.67-0.453-1.334-0.666-2.002l-0.092-0.297c-0.119-0.367-0.234-0.734-0.344-1.105c-0.229-0.77-0.443-1.553-0.652-2.34
			c-0.039-0.154-0.084-0.314-0.129-0.477c-0.057-0.207-0.113-0.416-0.168-0.627c-0.283-1.131-0.545-2.291-0.779-3.447
			c-0.039-0.191-0.072-0.385-0.105-0.574l-0.074-0.402c-0.145-0.773-0.314-1.688-0.459-2.625c-0.047-0.312-0.092-0.625-0.135-0.939
			l-0.055-0.381c-0.107-0.787-0.209-1.582-0.297-2.381c-0.047-0.449-0.094-0.898-0.135-1.35c-0.07-0.754-0.131-1.562-0.191-2.545
			l-0.029-0.447c-0.016-0.246-0.035-0.494-0.045-0.74c-0.06-1.393-0.092-2.617-0.092-3.748c0-0.979,0.031-1.947,0.076-3.08
			c5.295-25.041,25.449-38.225,28.568-41.68c25.562,25.412,102.941,6.465,103.623,6.211c0.361,0.934,22.67,35.605,23.209,39.318
			C205.795,161.543,171.043,197.021,128.363,197.021z"/>
	</g>
</g>
</svg>
