<?xml version="1.0" encoding="iso-8859-1"?>
<!-- Generator: Adobe Illustrator 17.1.0, SVG Export Plug-In . SVG Version: 6.00 Build 0)  -->
<!DOCTYPE svg PUBLIC "-//W3C//DTD SVG 1.1//EN" "http://www.w3.org/Graphics/SVG/1.1/DTD/svg11.dtd">
<svg version="1.1" id="Layer_1" xmlns="http://www.w3.org/2000/svg" xmlns:xlink="http://www.w3.org/1999/xlink" x="0px" y="0px"
	 viewBox="0 0 340.338 278.084" style="enable-background:new 0 0 340.338 278.084;" xml:space="preserve">
<path id="REFEREE_x27_S_JERSEY_1_" d="M340.273,56.391c-0.199-1.129-0.838-2.133-1.775-2.789l-53.324-37.338
	c0,0-20.504-16.264-46.547-16.264c-4.004,0-11.898,0-22.086,0c0,14.6-13.826,24.725-17.738,27.096
	c-3.912,2.369-16.609,6.795-26.596,6.795h-0.002c-0.038,0-0.072,0.004-0.109,0.004c-0.021,0-0.049-0.004-0.07-0.004h-0.002
	c-0.003,0-0.005,0-0.008,0c-0.002,0-0.004,0-0.006,0h-0.002c-0.632,0-1.24,0.051-1.838,0.133c-0.598-0.082-1.206-0.133-1.838-0.133
	h-0.002c-0.002,0-0.004,0-0.006,0c-0.003,0-0.005,0-0.008,0h-0.002c-0.021,0-0.049,0.004-0.07,0.004
	c-0.037,0-0.071-0.004-0.109-0.004h-0.002c-9.986,0-22.684-4.426-26.596-6.795C137.624,24.725,123.798,14.6,123.798,0
	c-10.188,0-18.082,0-22.086,0C75.669,0,55.165,16.264,55.165,16.264L1.841,53.602c-0.938,0.656-1.576,1.66-1.775,2.789
	c-0.199,1.129,0.059,2.289,0.715,3.229l29.279,42.584l8.758,12.758c0.106,0.15,0.217,0.291,0.338,0.424
	c0.838,0.928,2.014,1.42,3.205,1.42c0.003,0,0.006,0,0.008,0c0.002,0,0.004,0,0.006,0c0,0,0,0,0.002,0
	c0.855,0,1.719-0.254,2.475-0.783l37.437-25.732v104.234v55.467v5.842c2.746,2.445,6.555,5.225,11.764,7.977
	c5.676,3,12.146,5.527,19.381,7.586c14.728,4.443,33.447,6.69,55.945,6.69c0.002,0,0.004,0,0.006,0c0.003,0,0.006,0,0.01,0
	c0.025,0,0.049-0.002,0.072-0.002c0.037,0,0.073,0.002,0.109,0.002c0.002,0,0.004,0,0.007,0c0.002,0,0.005,0,0.007,0
	c0.196,0,0.386-0.004,0.58-0.006c0.194,0.002,0.384,0.006,0.58,0.006c0.002,0,0.005,0,0.007,0c0.003,0,0.005,0,0.007,0
	c0.036,0,0.072-0.002,0.109-0.002c0.024,0,0.047,0.002,0.072,0.002c0.004,0,0.007,0,0.01,0c0.002,0,0.004,0,0.006,0
	c22.498,0,41.217-2.246,55.945-6.69c7.234-2.059,13.705-4.586,19.381-7.586c5.209-2.752,9.018-5.531,11.764-7.977v-5.842v-55.467
	V90.289l37.438,25.732c0.756,0.529,1.619,0.783,2.475,0.783c0.002,0,0.002,0,0.002,0c0.002,0,0.004,0,0.006,0
	c0.002,0,0.005,0,0.008,0c1.191,0,2.367-0.492,3.205-1.42c0.121-0.133,0.232-0.273,0.338-0.424l8.758-12.758l29.279-42.584
	C340.214,58.68,340.472,57.52,340.273,56.391z M119.968,252.465c-0.251-0.072-0.511-0.143-0.759-0.217l-0.151-0.047l-0.151-0.043
	c-5.89-1.676-11.107-3.705-15.512-6.033c-0.15-0.078-0.288-0.156-0.435-0.236V20h5.697c2.937,5.904,6.952,11.094,11.311,15.396
	V252.465z M158.825,257.895c-6.036-0.219-11.711-0.631-17.008-1.236V48.943c5.014,1.76,10.961,3.342,17.008,4.221V257.895z
	 M197.682,256.748c-5.302,0.582-10.976,0.973-17.008,1.174V53.291c6.005-0.805,11.937-2.34,17.008-4.064V256.748z M236.538,246.332
	c-4.317,2.24-9.393,4.201-15.106,5.826l-0.151,0.043l-0.151,0.047c-0.523,0.156-1.062,0.307-1.599,0.457V36.211
	c4.682-4.457,9.025-9.93,12.15-16.211h4.857V246.332z"/>
</svg>
