<?xml version="1.0" encoding="iso-8859-1"?>
<!-- Generator: Adobe Illustrator 17.1.0, SVG Export Plug-In . SVG Version: 6.00 Build 0)  -->
<!DOCTYPE svg PUBLIC "-//W3C//DTD SVG 1.1//EN" "http://www.w3.org/Graphics/SVG/1.1/DTD/svg11.dtd">
<svg version="1.1" id="Layer_1" xmlns="http://www.w3.org/2000/svg" xmlns:xlink="http://www.w3.org/1999/xlink" x="0px" y="0px"
	 viewBox="0 0 334.487 224.635" style="enable-background:new 0 0 334.487 224.635;" xml:space="preserve">
<g id="SCORE">
	<g id="dots">
		<path d="M174.904,98.523c0,4.383-3.556,7.939-7.939,7.939l0,0c-4.385,0-7.94-3.557-7.94-7.939l0,0c0-4.385,3.556-7.941,7.94-7.941
			l0,0C171.349,90.582,174.904,94.139,174.904,98.523L174.904,98.523z"/>
		<path d="M174.904,126.113c0,4.383-3.556,7.94-7.939,7.94l0,0c-4.385,0-7.94-3.557-7.94-7.94l0,0c0-4.385,3.556-7.941,7.94-7.941
			l0,0C171.349,118.172,174.904,121.729,174.904,126.113L174.904,126.113z"/>
	</g>
	<g>
		<path d="M298.69,110.01V45.957c0-5.6-4.271-10.158-9.525-10.158h-8.751h-76.428h-8.752c-5.253,0-9.527,4.559-9.527,10.158v64.053
			H298.69z"/>
		<path d="M185.707,114.627v64.051c0,5.602,4.274,10.158,9.527,10.158h8.752h76.428h8.751c5.255,0,9.525-4.557,9.525-10.158v-64.051
			H185.707z"/>
	</g>
	<g>
		<path d="M148.782,110.01V45.957c0-5.6-4.273-10.158-9.526-10.158h-8.752H54.076h-8.751c-5.254,0-9.528,4.559-9.528,10.158v64.053
			H148.782z"/>
		<path d="M35.797,114.627v64.051c0,5.602,4.274,10.158,9.528,10.158h8.751h76.428h8.752c5.254,0,9.526-4.557,9.526-10.158v-64.051
			H35.797z"/>
	</g>
	<g id="numbers">
		<path style="fill:#FFFFFF;" d="M282.015,111.268c0,36.514-17.235,57.355-40.509,57.355c-24.026,0-39.123-23.588-39.123-55.416
			c0-33.607,16.481-57.195,40.382-57.195C267.421,56.012,282.015,80.084,282.015,111.268z M218.738,112.723
			c0,22.295,8.68,39.906,23.525,39.906c14.969,0,23.398-17.934,23.398-40.717c0-20.518-7.926-39.906-23.398-39.906
			C226.915,72.006,218.738,90.264,218.738,112.723z"/>
		<path style="fill:#FFFFFF;" d="M58.567,165.715v-12.117l11.803-11.471c23.453-22.943,34.489-35.545,34.643-49.441
			c0-9.369-4.752-17.609-17.78-17.609c-8.892,0-16.249,4.686-21.307,8.725l-5.52-14.057c7.205-6.139,18.088-10.824,30.658-10.824
			c22.071,0,32.803,14.701,32.803,31.826c0,18.42-12.57,33.285-30.044,50.25l-8.584,7.916v0.322h40.772v16.48H58.567z"/>
	</g>
	<path id="stroke" d="M302.725,20.373c6.28,0,11.39,5.109,11.39,11.391v161.109c0,6.279-5.109,11.389-11.39,11.389H31.762
		c-6.28,0-11.39-5.109-11.39-11.389V31.764c0-6.281,5.109-11.391,11.39-11.391H302.725 M302.725,0H31.762C14.248,0,0,14.25,0,31.764
		v161.109c0,17.514,14.248,31.762,31.762,31.762h270.964c17.514,0,31.762-14.248,31.762-31.762V31.764
		C334.487,14.25,320.239,0,302.725,0L302.725,0z"/>
</g>
</svg>
