<?xml version="1.0" encoding="iso-8859-1"?>
<!-- Generator: Adobe Illustrator 17.1.0, SVG Export Plug-In . SVG Version: 6.00 Build 0)  -->
<!DOCTYPE svg PUBLIC "-//W3C//DTD SVG 1.1//EN" "http://www.w3.org/Graphics/SVG/1.1/DTD/svg11.dtd">
<svg version="1.1" id="Layer_1" xmlns="http://www.w3.org/2000/svg" xmlns:xlink="http://www.w3.org/1999/xlink" x="0px" y="0px"
	 viewBox="0 0 275.93 344.197" style="enable-background:new 0 0 275.93 344.197;" xml:space="preserve">
<g id="STOPWATCH">
	<path d="M264.813,95.693l-16.829-16.828c-0.411-0.412-1.078-0.412-1.49,0l-9.754,9.754c-0.412,0.41-0.412,1.078,0,1.49l3.943,3.943
		l-7.267,7.268c-0.412,0.412-0.412,1.08-0.001,1.492l7.451,7.449c0.411,0.412,1.078,0.412,1.49,0l7.267-7.266l3.944,3.943
		c0.41,0.41,1.078,0.408,1.489,0l9.756-9.758C265.224,96.771,265.224,96.105,264.813,95.693z"/>
	<path d="M137.965,0c-22.343,0-40.521,18.178-40.521,40.521c0,22.344,18.178,40.52,40.521,40.52s40.52-18.176,40.52-40.52
		C178.485,18.178,160.308,0,137.965,0z M146.51,67.744V54.928h7.54c0.787,0,1.425-0.637,1.425-1.424V34.855
		c0-0.785-0.638-1.424-1.425-1.424h-32.17c-0.786,0-1.425,0.639-1.425,1.424v18.648c0,0.787,0.639,1.424,1.425,1.424h7.54v12.816
		c-11.571-3.641-19.987-14.467-19.987-27.223c0-15.734,12.8-28.533,28.532-28.533s28.532,12.799,28.532,28.533
		C166.497,53.277,158.081,64.104,146.51,67.744z"/>
	<path d="M137.965,128.9c0,0-18.407,69.195-18.407,76.812c0,10.166,8.241,18.408,18.407,18.408s18.407-8.242,18.407-18.408
		C156.372,198.096,137.965,128.9,137.965,128.9z"/>
	<path id="stroke_1_" d="M137.965,67.229C61.891,67.229,0,129.352,0,205.713c0,76.359,61.891,138.484,137.965,138.484
		S275.93,282.072,275.93,205.713C275.93,129.352,214.039,67.229,137.965,67.229z M137.965,321.766
		c-30.879,0-59.911-12.072-81.747-33.99c-21.836-21.918-33.862-51.062-33.862-82.062s12.026-60.145,33.862-82.063
		c21.835-21.918,50.867-33.988,81.747-33.988s59.912,12.07,81.747,33.988c21.836,21.918,33.862,51.063,33.862,82.063
		s-12.026,60.144-33.862,82.062C197.876,309.693,168.844,321.766,137.965,321.766z"/>
	<g>
		<path d="M137.965,102.092c-5.366,0-9.73,4.365-9.73,9.731c0,5.365,4.364,9.73,9.73,9.73s9.731-4.365,9.731-9.73
			C147.696,106.457,143.331,102.092,137.965,102.092z"/>
		<path d="M137.965,291.221c-5.366,0-9.73,4.365-9.73,9.73c0,5.367,4.364,9.73,9.73,9.73s9.731-4.363,9.731-9.73
			C147.696,295.586,143.331,291.221,137.965,291.221z"/>
		<path d="M43.4,196.656c-5.365,0-9.729,4.365-9.729,9.73c0,5.367,4.364,9.73,9.729,9.73c5.366,0,9.731-4.363,9.731-9.73
			C53.132,201.021,48.767,196.656,43.4,196.656z"/>
		<path d="M232.53,196.656c-5.366,0-9.731,4.365-9.731,9.73c0,5.367,4.365,9.73,9.731,9.73s9.73-4.363,9.73-9.73
			C242.261,201.021,237.896,196.656,232.53,196.656z"/>
		<path d="M71.099,129.787c-2.6,0-5.043,1.014-6.881,2.852c-3.795,3.793-3.795,9.967,0,13.762c1.836,1.838,4.28,2.85,6.88,2.85
			c2.599,0,5.043-1.012,6.88-2.85c3.794-3.795,3.795-9.969,0.001-13.762C76.141,130.801,73.697,129.787,71.099,129.787z"/>
		<path d="M204.832,263.523c-2.598,0-5.041,1.012-6.88,2.85c-1.838,1.838-2.851,4.281-2.851,6.881c0,2.6,1.013,5.043,2.851,6.881
			c1.837,1.838,4.281,2.85,6.88,2.85c2.6,0,5.043-1.012,6.881-2.85c1.838-1.838,2.851-4.281,2.851-6.881
			c0-2.6-1.013-5.043-2.851-6.881C209.875,264.535,207.432,263.523,204.832,263.523z"/>
		<path d="M71.097,263.523c-2.6,0-5.043,1.012-6.879,2.85c-1.839,1.84-2.851,4.281-2.851,6.881c0,2.6,1.013,5.043,2.851,6.881
			c1.838,1.838,4.281,2.852,6.881,2.852c2.599,0,5.042-1.014,6.88-2.852c3.793-3.795,3.793-9.967,0-13.762
			C76.141,264.535,73.695,263.523,71.097,263.523z"/>
		<path d="M204.831,129.787c-2.599,0-5.042,1.014-6.881,2.852c-3.793,3.793-3.792,9.967,0.002,13.762
			c1.839,1.838,4.282,2.85,6.88,2.85c2.6,0,5.043-1.012,6.881-2.85c1.838-1.838,2.851-4.281,2.851-6.881s-1.013-5.043-2.851-6.881
			C209.874,130.801,207.431,129.787,204.831,129.787z"/>
	</g>
</g>
</svg>
