<?xml version="1.0" encoding="iso-8859-1"?>
<!-- Generator: Adobe Illustrator 17.1.0, SVG Export Plug-In . SVG Version: 6.00 Build 0)  -->
<!DOCTYPE svg PUBLIC "-//W3C//DTD SVG 1.1//EN" "http://www.w3.org/Graphics/SVG/1.1/DTD/svg11.dtd">
<svg version="1.1" id="Layer_1" xmlns="http://www.w3.org/2000/svg" xmlns:xlink="http://www.w3.org/1999/xlink" x="0px" y="0px"
	 viewBox="0 0 325.984 171.279" style="enable-background:new 0 0 325.984 171.279;" xml:space="preserve">
<g id="WHITSTLE">
	<path d="M325.984,52.713c0-18.555-15.096-33.65-33.652-33.65c-6.686,0-12.918,1.967-18.16,5.344
		c-14.332-14.01-33.555-23.031-54.875-24.252C219.402,0.053,219.293,0,218.871,0H4.682C2.096,0,0,2.01,0,4.488v39.9
		c0,2.074,1.484,3.881,3.588,4.365l125.477,28.924c-0.242,2.623-0.381,5.275-0.381,7.963c0,47.297,38.342,85.639,85.641,85.639
		s85.641-38.342,85.641-85.639c0-0.053-0.004-0.105-0.004-0.158C314.852,82.016,325.984,68.645,325.984,52.713z M144.68,25.842
		H19.844c-3.314,0-6-2.686-6-6c0-3.312,2.686-6,6-6H144.68c3.314,0,6,2.688,6,6C150.68,23.156,147.994,25.842,144.68,25.842z
		 M214.324,144.262c-32.324,0-58.621-26.297-58.621-58.621c0-32.324,26.297-58.623,58.621-58.623
		c32.324,0,58.621,26.299,58.621,58.623C272.945,117.965,246.648,144.262,214.324,144.262z M297.994,67.385
		c-2.281-10.502-6.482-20.283-12.228-28.959c2.002-0.924,4.221-1.453,6.566-1.453c8.68,0,15.742,7.059,15.742,15.74
		C308.074,59.396,303.881,65.105,297.994,67.385z"/>
	<circle cx="214.324" cy="85.64" r="38.622"/>
</g>
</svg>
