<?xml version="1.0" encoding="utf-8"?>
<!-- Generated by IcoMoon.io -->
<!DOCTYPE svg PUBLIC "-//W3C//DTD SVG 1.1//EN" "http://www.w3.org/Graphics/SVG/1.1/DTD/svg11.dtd">
<svg version="1.1" xmlns="http://www.w3.org/2000/svg" xmlns:xlink="http://www.w3.org/1999/xlink" width="32" height="32" viewBox="0 0 32 32">
<g id="icomoon-ignore">
	<line stroke-width="1" x1="" y1="" x2="" y2="" stroke="#449FDB" opacity=""></line>
</g>
	<path d="M27.775 26.831c0.031-0.034 0.062-0.067 0.093-0.102 0.071-0.077 0.14-0.156 0.209-0.235 0.029-0.034 0.058-0.068 0.088-0.103 0.048-0.057 0.096-0.113 0.143-0.17 0.031-0.037 0.062-0.075 0.092-0.112 0.045-0.056 0.090-0.111 0.135-0.167 0.030-0.037 0.059-0.075 0.089-0.113 0.047-0.060 0.093-0.121 0.139-0.182 0.026-0.034 0.052-0.068 0.077-0.102 0.062-0.083 0.122-0.166 0.182-0.25 0.009-0.012 0.018-0.024 0.027-0.037 0-0 0.001-0.001 0.001-0.001v0c1.857-2.613 2.949-5.808 2.949-9.257 0-0.126-0.002-0.252-0.005-0.378-0.001-0.040-0.002-0.080-0.003-0.119-0.003-0.087-0.006-0.174-0.010-0.261-0.002-0.045-0.004-0.089-0.007-0.134-0.005-0.085-0.010-0.17-0.016-0.255-0.003-0.041-0.005-0.082-0.009-0.123-0.009-0.111-0.018-0.222-0.029-0.332-0.002-0.015-0.003-0.030-0.004-0.045-0.012-0.119-0.026-0.237-0.040-0.354-0.006-0.044-0.012-0.087-0.017-0.131-0.010-0.078-0.021-0.156-0.033-0.234-0.007-0.049-0.015-0.098-0.022-0.147-0.012-0.074-0.024-0.148-0.037-0.222-0.008-0.048-0.017-0.096-0.025-0.144-0.016-0.085-0.032-0.171-0.049-0.255-0.011-0.053-0.021-0.107-0.032-0.16-0.019-0.092-0.039-0.184-0.060-0.276-0.012-0.053-0.025-0.106-0.038-0.16-0.015-0.063-0.031-0.126-0.046-0.188-0.014-0.057-0.029-0.115-0.044-0.171-0.015-0.058-0.031-0.116-0.047-0.173s-0.032-0.117-0.049-0.176c-0.016-0.055-0.032-0.11-0.049-0.165-0.035-0.115-0.070-0.23-0.107-0.343-0.014-0.045-0.028-0.089-0.043-0.133-0.022-0.066-0.046-0.133-0.069-0.199-0.015-0.044-0.030-0.087-0.046-0.13-0.024-0.067-0.049-0.134-0.074-0.201-0.015-0.040-0.030-0.079-0.045-0.119-0.027-0.070-0.054-0.14-0.081-0.21-0.011-0.027-0.022-0.053-0.033-0.080-0.102-0.251-0.21-0.498-0.324-0.742-0.012-0.024-0.023-0.049-0.034-0.073-0.036-0.076-0.073-0.152-0.11-0.227-0.011-0.023-0.023-0.046-0.034-0.069-0.040-0.079-0.079-0.158-0.12-0.236-0.002-0.004-0.005-0.008-0.007-0.013-0.138-0.265-0.283-0.527-0.436-0.782-0.006-0.010-0.011-0.020-0.017-0.029-0.048-0.080-0.096-0.16-0.145-0.239-0.008-0.012-0.016-0.025-0.023-0.037-0.213-0.341-0.438-0.673-0.676-0.996-0.002-0.002-0.003-0.004-0.004-0.006h-0c-2.122-2.886-5.189-5.034-8.745-5.987-0.013-0.003-0.026-0.007-0.039-0.011-0.086-0.023-0.173-0.045-0.26-0.067-0.025-0.006-0.050-0.012-0.075-0.018-0.085-0.021-0.17-0.041-0.255-0.060-0.019-0.004-0.039-0.008-0.058-0.013-0.178-0.039-0.357-0.076-0.536-0.109-0.014-0.002-0.026-0.005-0.040-0.007-0.071-0.013-0.142-0.025-0.214-0.037-0.049-0.008-0.097-0.017-0.146-0.024-0.065-0.011-0.131-0.020-0.196-0.030-0.058-0.008-0.116-0.016-0.174-0.024-0.060-0.008-0.12-0.016-0.18-0.024-0.078-0.010-0.156-0.018-0.234-0.027-0.054-0.006-0.108-0.012-0.163-0.017-0.104-0.010-0.208-0.020-0.313-0.028-0.045-0.004-0.090-0.007-0.135-0.010-0.081-0.006-0.162-0.011-0.243-0.015-0.047-0.002-0.093-0.005-0.139-0.007-0.085-0.004-0.17-0.007-0.255-0.010-0.041-0.001-0.081-0.002-0.121-0.003-0.125-0.004-0.25-0.005-0.376-0.005s-0.251 0.002-0.375 0.005c-0.040 0.001-0.081 0.002-0.121 0.004-0.085 0.003-0.17 0.006-0.255 0.010-0.046 0.002-0.092 0.005-0.139 0.007-0.081 0.005-0.163 0.010-0.244 0.016-0.045 0.003-0.089 0.006-0.133 0.010-0.116 0.009-0.232 0.019-0.347 0.031-0.050 0.005-0.099 0.011-0.149 0.016-0.069 0.008-0.139 0.015-0.207 0.024-0.063 0.008-0.126 0.017-0.189 0.025-0.054 0.007-0.107 0.014-0.16 0.022-0.069 0.010-0.138 0.021-0.207 0.031-0.041 0.006-0.082 0.014-0.123 0.021-0.272 0.045-0.541 0.097-0.807 0.156-0.015 0.003-0.029 0.006-0.044 0.010-0.091 0.021-0.182 0.042-0.273 0.064-0.015 0.004-0.030 0.007-0.045 0.011-4.105 1.005-7.588 3.594-9.765 7.082-0.005 0.008-0.010 0.017-0.015 0.025-0.051 0.082-0.102 0.165-0.151 0.248-0.003 0.005-0.006 0.010-0.009 0.015-0.203 0.341-0.393 0.689-0.57 1.046-0.010 0.020-0.020 0.040-0.030 0.059-0.039 0.078-0.077 0.156-0.114 0.235-0.009 0.020-0.019 0.040-0.028 0.061-0.118 0.252-0.229 0.507-0.334 0.765-0.008 0.021-0.017 0.042-0.025 0.063-0.029 0.073-0.057 0.145-0.085 0.218-0.014 0.036-0.028 0.073-0.042 0.11-0.026 0.069-0.051 0.139-0.076 0.208-0.015 0.040-0.029 0.081-0.043 0.121-0.024 0.069-0.048 0.137-0.071 0.207-0.012 0.036-0.024 0.074-0.036 0.111-0.041 0.124-0.079 0.248-0.117 0.373-0.015 0.051-0.031 0.102-0.045 0.152-0.017 0.061-0.034 0.121-0.051 0.182-0.015 0.056-0.030 0.111-0.045 0.167-0.015 0.059-0.031 0.118-0.045 0.177-0.015 0.060-0.030 0.121-0.045 0.182-0.013 0.055-0.026 0.11-0.039 0.165-0.020 0.088-0.039 0.177-0.058 0.266-0.012 0.057-0.024 0.115-0.035 0.173-0.017 0.084-0.033 0.167-0.048 0.251-0.009 0.049-0.017 0.097-0.026 0.147-0.013 0.073-0.025 0.145-0.036 0.219-0.008 0.049-0.015 0.099-0.023 0.148-0.012 0.077-0.022 0.155-0.033 0.233-0.006 0.044-0.012 0.087-0.017 0.132-0.015 0.118-0.028 0.236-0.041 0.354-0.002 0.015-0.003 0.031-0.004 0.046-0.011 0.11-0.021 0.22-0.030 0.331-0.003 0.041-0.006 0.082-0.009 0.124-0.006 0.085-0.011 0.17-0.016 0.254-0.002 0.045-0.005 0.089-0.007 0.134-0.004 0.087-0.007 0.173-0.010 0.261-0.001 0.039-0.003 0.079-0.004 0.119-0.003 0.125-0.005 0.251-0.005 0.377 0 3.808 1.331 7.304 3.552 10.051 0.011 0.014 0.023 0.028 0.034 0.043 0.056 0.068 0.112 0.136 0.169 0.204 0.016 0.019 0.032 0.038 0.048 0.057 0.057 0.067 0.114 0.133 0.172 0.2 0.013 0.014 0.026 0.029 0.040 0.044 0.263 0.298 0.538 0.585 0.822 0.862 0.013 0.013 0.027 0.027 0.041 0.040 0.064 0.062 0.129 0.123 0.194 0.184 0.017 0.016 0.034 0.032 0.050 0.047 0.066 0.061 0.133 0.122 0.2 0.183 0.010 0.009 0.021 0.018 0.031 0.027 0.301 0.269 0.612 0.526 0.933 0.771 0.013 0.010 0.026 0.020 0.039 0.030 0.073 0.056 0.148 0.112 0.222 0.166 0.015 0.011 0.029 0.022 0.044 0.032 0.077 0.056 0.154 0.111 0.232 0.166 0.003 0.002 0.006 0.004 0.009 0.006 0.34 0.238 0.69 0.463 1.048 0.674 0.011 0.006 0.021 0.013 0.032 0.019 0.084 0.049 0.168 0.097 0.252 0.145 0.011 0.006 0.021 0.012 0.031 0.018 0.455 0.254 0.923 0.488 1.404 0.697 0.009 0.004 0.017 0.007 0.026 0.012 0.093 0.040 0.186 0.080 0.28 0.119 0.006 0.002 0.012 0.005 0.018 0.007 1.874 0.77 3.925 1.196 6.077 1.196 2.967 0 5.745-0.808 8.126-2.215 0.013-0.007 0.026-0.016 0.039-0.023 0.081-0.048 0.162-0.097 0.242-0.147 0.014-0.008 0.028-0.017 0.042-0.026 0.338-0.21 0.666-0.432 0.986-0.667 0.022-0.016 0.043-0.031 0.065-0.047 0.064-0.047 0.127-0.095 0.191-0.143 0.030-0.023 0.059-0.046 0.088-0.068 0.060-0.047 0.12-0.093 0.179-0.141 0.032-0.025 0.063-0.051 0.095-0.076 0.058-0.047 0.116-0.093 0.173-0.141 0.030-0.024 0.059-0.050 0.088-0.075 0.108-0.091 0.214-0.183 0.319-0.276 0.031-0.028 0.063-0.055 0.094-0.083 0.047-0.042 0.093-0.086 0.14-0.129 0.040-0.037 0.081-0.075 0.121-0.113 0.044-0.041 0.088-0.083 0.131-0.125 0.042-0.041 0.084-0.082 0.126-0.123s0.083-0.082 0.123-0.123c0.044-0.045 0.088-0.090 0.132-0.135 0.037-0.039 0.075-0.077 0.112-0.116 0.055-0.059 0.11-0.118 0.164-0.176zM22.765 24.103l-2.83-3.857 1.745-5.37 4.503-1.475 3.908 3.815c-0.183 2.165-0.854 4.23-1.96 6.066l-5.366 0.822zM26.67 6.716l-0.9 5.422-4.52 1.48-4.571-3.321v-4.758l4.886-2.55c1.636 0.7 3.14 1.713 4.437 3.009 0.232 0.233 0.455 0.472 0.669 0.717zM10.452 2.984l4.899 2.556v4.758l-4.58 3.328-4.54-1.487-0.9-5.422c0.214-0.245 0.437-0.484 0.669-0.717 1.301-1.301 2.81-2.316 4.452-3.016zM3.863 23.271c-1.102-1.833-1.77-3.894-1.954-6.055l3.908-3.815 4.536 1.485 1.751 5.39-2.808 3.827-5.433-0.832zM12.768 29.773l-2.401-4.884 2.807-3.826h5.714l2.807 3.826-2.393 4.867c-1.069 0.255-2.175 0.386-3.302 0.386-1.102 0-2.185-0.126-3.232-0.37z" fill="#000000"></path>
</svg>
