<?xml version="1.0" encoding="utf-8"?>
<!-- Generated by IcoMoon.io -->
<!DOCTYPE svg PUBLIC "-//W3C//DTD SVG 1.1//EN" "http://www.w3.org/Graphics/SVG/1.1/DTD/svg11.dtd">
<svg version="1.1" xmlns="http://www.w3.org/2000/svg" xmlns:xlink="http://www.w3.org/1999/xlink" width="22" height="32" viewBox="0 0 22 32">
<g id="icomoon-ignore">
	<line stroke-width="1" x1="" y1="" x2="" y2="" stroke="#449FDB" opacity=""></line>
</g>
	<path d="M12.324 31.743v-3.589c0-0.068-0.029-0.133-0.082-0.182s-0.124-0.076-0.198-0.075h-9.943c-0.154 0-0.28 0.115-0.28 0.257v3.589c0 0.068 0.029 0.134 0.082 0.182s0.124 0.075 0.198 0.075h9.943c0.154-0 0.28-0.115 0.28-0.257z" fill="#000000"></path>
	<path d="M21.291 20.433l-0.858-2.164c-0.004-0.015-0.008-0.030-0.014-0.044l-0.608-1.535c-0.015-0.038-0.032-0.077-0.051-0.114l-0.899-2.269c-0.019-0.048-0.040-0.096-0.069-0.158-0.001-0.002-0.002-0.004-0.003-0.007-0.003-0.008-0.006-0.014-0.009-0.021l-0.007-0.015c-0.005-0.010-0.009-0.020-0.014-0.030-0.032-0.066-0.062-0.122-0.092-0.175-0.001-0.001-0.001-0.001-0.001-0.002-0.041-0.072-0.086-0.143-0.137-0.218-0.002-0.003-0.004-0.006-0.006-0.009 0 0 0-0 0-0s-0-0-0-0-0.002-0.002-0.002-0.003l-0.008-0.012c-0.022-0.031-0.043-0.061-0.065-0.091-0.003-0.004-0.006-0.008-0.009-0.013l0.002 0.003c-0.001-0.001-0.001-0.002-0.002-0.003h0c-0-0-0-0-0-0-0.003-0.003-0.005-0.007-0.008-0.010l-0.007-0.010c-0.008-0.011-0.016-0.021-0.024-0.032-0.005-0.006-0.009-0.011-0.014-0.017-0.011-0.014-0.022-0.028-0.034-0.042-0-0-0-0.001-0.001-0.001-0.292-0.353-0.648-0.637-1.061-0.842-0.444-0.221-0.933-0.338-1.416-0.338 0 0 0 0-0 0-0.329 0-0.652 0.053-0.961 0.156-0.349 0.117-0.665 0.293-0.939 0.523-0.009 0.008-0.018 0.015-0.026 0.022l-0.056 0.049c-0.001 0.001-0.002 0.002-0.004 0.003l-0.007 0.007-0.006 0.005c-0.003 0.002-0.005 0.005-0.008 0.007-0.273 0.253-0.491 0.552-0.647 0.887-0.002 0.004-0.004 0.009-0.006 0.013-0.021 0.045-0.040 0.090-0.057 0.134-0 0-0 0.001-0.001 0.001s-0.001 0.001-0.001 0.002c-0.017 0.044-0.035 0.091-0.051 0.139-0.002 0.004-0.003 0.008-0.004 0.013-0.014 0.043-0.028 0.087-0.040 0.131-0 0.001-0.001 0.002-0.001 0.004-0.001 0.004-0.002 0.008-0.003 0.012-0.011 0.040-0.021 0.082-0.032 0.129-0 0.002-0.001 0.003-0.001 0.005-0.001 0.005-0.003 0.011-0.004 0.017-0.009 0.041-0.017 0.083-0.024 0.125-0.002 0.012-0.004 0.022-0.006 0.031-0.006 0.039-0.011 0.078-0.016 0.117l-0.001 0.008c-0.001 0.009-0.002 0.018-0.003 0.027-0.004 0.040-0.007 0.080-0.010 0.12l-0.001 0.005c-0.001 0.011-0.002 0.022-0.002 0.033-0.003 0.051-0.004 0.103-0.004 0.154 0 0.386 0.074 0.767 0.219 1.134l0.878 2.214c0.006 0.015 0.012 0.029 0.020 0.042l0.094 0.236-0.035-0.102-1.837 1.837h2.499c0.022 0 0.043-0.001 0.064-0.002h1.316c0.119 0 0.231-0.059 0.298-0.158s0.081-0.224 0.037-0.335l-1.731-4.367c-0.065-0.164-0.098-0.331-0.098-0.498 0-0.037 0.002-0.074 0.005-0.112 0-0.003 0.001-0.006 0.001-0.009 0.003-0.034 0.008-0.068 0.015-0.102 0.001-0.003 0.002-0.009 0.003-0.015 0.006-0.030 0.014-0.062 0.023-0.095 0-0.001 0.002-0.005 0.002-0.007s0.001-0.003 0.001-0.004c0.009-0.031 0.020-0.063 0.033-0.094l0.003-0.008c0.013-0.032 0.028-0.063 0.043-0.092 0.002-0.003 0.003-0.007 0.005-0.009 0.015-0.028 0.032-0.057 0.051-0.086 0.002-0.002 0.003-0.004 0.005-0.007 0.018-0.027 0.037-0.053 0.058-0.079 0.002-0.003 0.005-0.006 0.007-0.008 0.022-0.027 0.047-0.054 0.072-0.080 0.010-0.009 0.020-0.020 0.032-0.031l0.049-0.043c0.107-0.089 0.233-0.158 0.374-0.205 0.133-0.045 0.272-0.067 0.414-0.067 0.22 0 0.437 0.053 0.646 0.157 0.11 0.055 0.216 0.126 0.315 0.21 0.021 0.018 0.042 0.037 0.066 0.060l0.008 0.008c0.034 0.034 0.067 0.069 0.1 0.108l0.011 0.013c0.004 0.005 0.008 0.009 0.012 0.014 0.015 0.019 0.028 0.036 0.041 0.053 0.008 0.011 0.015 0.022 0.022 0.032l0.005 0.008c0.004 0.006 0.008 0.011 0.012 0.017 0.012 0.018 0.022 0.033 0.032 0.049 0.017 0.027 0.033 0.056 0.049 0.085 0.005 0.010 0.011 0.022 0.017 0.034 0.021 0.042 0.036 0.076 0.048 0.107l0.413 1.043 0.531 1.34c0.008 0.020 0.017 0.039 0.029 0.057l1.464 3.693c0.058 0.147 0.088 0.301 0.088 0.457-0 0.362-0.165 0.722-0.452 0.985-0.17 0.156-0.375 0.276-0.608 0.354l-6.91 2.203h-8.63v-3.197l0-1.737-0-0.386v-0.977l-1.72-1.72v8.423c0.001 0.737 0.625 1.336 1.392 1.336l0.517-0.001c0.006 0 0.013 0.001 0.019 0.001h8.629c0.037 0 0.074-0.006 0.11-0.017l5.524-1.768c0.012-0.004 0.024-0.008 0.035-0.013l1.561-0.498c0.003-0.001 0.006-0.002 0.009-0.003 0.465-0.156 0.879-0.398 1.23-0.72 0.643-0.591 1.012-1.417 1.012-2.265 0-0.377-0.071-0.747-0.21-1.099z" fill="#000000"></path>
	<path d="M7.013 21.081c0.429 0.429 0.996 0.665 1.597 0.665 0.588 0 1.139-0.227 1.551-0.64l2.695-2.695-0.066-0.166-0.060-0.152-0.562-1.419c-0.001-0.003-0.002-0.006-0.004-0.010l-3.222 3.222c-0.087 0.086-0.204 0.134-0.332 0.134-0.141 0-0.275-0.057-0.378-0.159l-6.348-6.348c-0.1-0.1-0.156-0.23-0.159-0.367-0.003-0.131 0.045-0.253 0.134-0.342l10.945-10.945c0.086-0.086 0.204-0.134 0.331-0.134 0.141 0 0.275 0.057 0.378 0.159l6.348 6.348c0.203 0.202 0.214 0.521 0.025 0.709l-2.519 2.518c0.137 0.052 0.271 0.109 0.403 0.175 0.405 0.202 0.77 0.461 1.090 0.772l2.245-2.246c0.861-0.861 0.85-2.273-0.025-3.148l-6.348-6.348c-0.429-0.428-0.996-0.665-1.597-0.665-0.588 0-1.139 0.227-1.551 0.639l-10.945 10.945c-0.418 0.418-0.645 0.976-0.639 1.572 0.006 0.593 0.242 1.153 0.665 1.576l6.348 6.348z" fill="#000000"></path>
	<path d="M11.883 15.418c-0.006-0.092-0.010-0.185-0.010-0.278 0-0.068 0.002-0.138 0.005-0.203 0.001-0.023 0.003-0.046 0.005-0.069 0.004-0.057 0.008-0.106 0.013-0.154 0.002-0.018 0.004-0.035 0.006-0.050l0-0.002c0.006-0.054 0.013-0.103 0.020-0.149 0.003-0.018 0.006-0.036 0.010-0.056 0.010-0.057 0.020-0.11 0.031-0.161 0.002-0.011 0.005-0.022 0.007-0.033 0.014-0.061 0.028-0.118 0.042-0.172 0.002-0.006 0.003-0.012 0.005-0.018 0.001-0.002 0.001-0.005 0.002-0.007 0.016-0.057 0.033-0.115 0.052-0.172 0.003-0.011 0.007-0.021 0.010-0.031 0.022-0.064 0.045-0.128 0.069-0.188 0-0 0-0.001 0-0.001s0.001-0.002 0.001-0.002c0.024-0.059 0.049-0.119 0.077-0.179 0.005-0.011 0.010-0.021 0.015-0.032 0.215-0.461 0.514-0.87 0.887-1.215 0.008-0.007 0.016-0.015 0.024-0.022l0.005-0.005c0.003-0.002 0.009-0.008 0.012-0.010s0.005-0.005 0.008-0.007l0.054-0.048c0.014-0.012 0.028-0.024 0.046-0.040 0.378-0.318 0.813-0.56 1.291-0.72 0.42-0.14 0.858-0.212 1.304-0.212h0c0.079 0 0.158 0.003 0.238 0.007l2.59-2.59-5.556-5.555-10.101 10.101 5.555 5.555 3.283-3.283z" fill="#000000"></path>
</svg>
