<?xml version="1.0" encoding="utf-8"?>
<!-- Generated by IcoMoon.io -->
<!DOCTYPE svg PUBLIC "-//W3C//DTD SVG 1.1//EN" "http://www.w3.org/Graphics/SVG/1.1/DTD/svg11.dtd">
<svg version="1.1" xmlns="http://www.w3.org/2000/svg" xmlns:xlink="http://www.w3.org/1999/xlink" width="46" height="32" viewBox="0 0 46 32">
<g id="icomoon-ignore">
	<line stroke-width="1" x1="" y1="" x2="" y2="" stroke="#449FDB" opacity=""></line>
</g>
	<path d="M25.459 16c0-1.19-0.778-2.201-1.852-2.553v5.107c1.074-0.353 1.852-1.363 1.852-2.553z" fill="#000000"></path>
	<path d="M20.083 16c0 1.19 0.778 2.201 1.852 2.553v-5.107c-1.074 0.353-1.852 1.363-1.852 2.553z" fill="#000000"></path>
	<path d="M5.309 11.703h3.35v8.593h-3.35v-8.594z" fill="#000000"></path>
	<path d="M21.935 11.722v-6.847h-16.627v5.157h5.021v11.936h-5.021v5.157h16.627v-6.847c-2.005-0.391-3.523-2.16-3.523-4.278s1.518-3.887 3.523-4.278z" fill="#000000"></path>
	<path d="M36.883 11.703h3.35v8.593h-3.35v-8.594z" fill="#000000"></path>
	<path d="M35.212 21.968v-11.936h5.021v-5.157h-16.627v6.847c2.005 0.391 3.523 2.16 3.523 4.278s-1.518 3.887-3.523 4.278v6.847h16.627v-5.157h-5.021z" fill="#000000"></path>
	<path d="M42.659 0h-39.777c-1.589 0-2.882 1.463-2.882 3.261v25.478c0 1.798 1.293 3.261 2.882 3.261h39.777c1.589 0 2.882-1.463 2.882-3.261v-25.478c0-1.798-1.293-3.261-2.882-3.261zM42.756 3.261v25.954h-39.971v-25.954c0-0.014 0-0.477 0-0.477l39.971 0.001v0.475z" fill="#000000"></path>
</svg>
