<?xml version="1.0" encoding="utf-8"?>
<!-- Generated by IcoMoon.io -->
<!DOCTYPE svg PUBLIC "-//W3C//DTD SVG 1.1//EN" "http://www.w3.org/Graphics/SVG/1.1/DTD/svg11.dtd">
<svg version="1.1" xmlns="http://www.w3.org/2000/svg" xmlns:xlink="http://www.w3.org/1999/xlink" width="52" height="32" viewBox="0 0 52 32">
<g id="icomoon-ignore">
	<line stroke-width="1" x1="" y1="" x2="" y2="" stroke="#449FDB" opacity=""></line>
</g>
	<path d="M50.213 0h-48.395c-1.002 0-1.818 0.815-1.818 1.818v28.364c0 1.003 0.816 1.818 1.818 1.818s1.818-0.815 1.818-1.818v-26.546h44.759v26.546c0 1.003 0.816 1.818 1.818 1.818s1.818-0.815 1.818-1.818v-28.364c-0-1.003-0.816-1.818-1.818-1.818z" fill="#000000"></path>
	<path d="M43.802 23.97l-0.002-0.059c-0.002-0.042-0.003-0.085-0.006-0.144l-0.002-0.049c-0.002-0.042-0.005-0.084-0.008-0.126l-0.004-0.059c-0.004-0.055-0.009-0.109-0.014-0.163l-0.002-0.022c-0.006-0.058-0.013-0.116-0.020-0.174l-0.009-0.064c-0.005-0.039-0.010-0.077-0.016-0.114l-0.041-0.252c-0.008-0.042-0.016-0.084-0.025-0.132l-0.015-0.072c-0.009-0.045-0.019-0.090-0.029-0.136l-0.134-0.505c-0.017-0.056-0.034-0.113-0.057-0.181l-0.188-0.513c-0.050-0.123-0.103-0.244-0.162-0.372l-0.013-0.028c-0.018-0.037-0.036-0.074-0.054-0.11l-0.017-0.035c-0.020-0.039-0.039-0.077-0.062-0.121-0.067-0.13-0.139-0.259-0.222-0.397-0.023-0.039-0.047-0.078-0.071-0.117l-0.012-0.018c-0.105-0.167-0.216-0.332-0.325-0.48l-0.021-0.032-0.005-0.004c-1.054-1.422-2.57-2.456-4.271-2.912l-0.019-0.005c-0.042-0.011-0.085-0.022-0.129-0.033l-0.035-0.009c-0.042-0.010-0.083-0.020-0.136-0.032l-0.017-0.004c-0.087-0.019-0.175-0.037-0.263-0.054l-0.66-0.093c-0.051-0.005-0.102-0.010-0.153-0.014l-0.254-0.016c-0.042-0.002-0.084-0.004-0.126-0.005l-0.058-0.002c-0.123-0.003-0.245-0.003-0.369-0l-0.059 0.002c-0.042 0.001-0.084 0.003-0.126 0.005l-0.253 0.016c-0.057 0.005-0.113 0.010-0.17 0.015l-0.507 0.068c-0.133 0.022-0.266 0.048-0.396 0.076l-0.022 0.005c-0.044 0.010-0.089 0.020-0.133 0.031l-0.022 0.005c-1.995 0.489-3.696 1.722-4.796 3.485-0.025 0.041-0.050 0.081-0.079 0.13-0.1 0.168-0.194 0.34-0.28 0.513l0.194 0.096-0.208-0.068c-0.019 0.039-0.037 0.077-0.059 0.122l-0.011 0.024c-0.058 0.123-0.112 0.248-0.164 0.375l-0.013 0.032c-0.014 0.035-0.028 0.071-0.042 0.107l-0.080 0.219c-0.011 0.032-0.023 0.065-0.033 0.096l-0.018 0.056c-0.020 0.061-0.038 0.121-0.057 0.183l-0.133 0.502c-0.010 0.043-0.019 0.087-0.029 0.131l-0.017 0.085c-0.008 0.041-0.016 0.082-0.023 0.122l-0.041 0.252c-0.006 0.038-0.011 0.077-0.016 0.115l-0.008 0.064c-0.007 0.058-0.014 0.115-0.020 0.174l0.215 0.022-0.217 0c-0.005 0.054-0.010 0.108-0.014 0.161l-0.004 0.062c-0.003 0.041-0.006 0.083-0.008 0.125l-0.004 0.066c-0.002 0.043-0.004 0.085-0.005 0.145l-0.001 0.042c-0.002 0.062-0.003 0.123-0.003 0.185 0 1.789 0.619 3.539 1.748 4.936l0.011 0.014c0.027 0.033 0.055 0.067 0.084 0.101l0.126 0.146c0.127 0.143 0.262 0.285 0.403 0.423l0.020 0.019v0c0.032 0.031 0.063 0.060 0.107 0.102l0.013 0.012c0.032 0.030 0.065 0.059 0.097 0.089l0.015 0.014c0.147 0.131 0.301 0.258 0.457 0.378l0.131-0.172-0.113 0.185c0.036 0.028 0.073 0.056 0.107 0.080l0.024 0.018c0.038 0.027 0.076 0.055 0.118 0.084 0.166 0.116 0.339 0.228 0.512 0.33l0.018 0.010c0.041 0.024 0.082 0.048 0.124 0.071l0.015 0.009c0.225 0.126 0.457 0.241 0.701 0.348 0.045 0.020 0.091 0.039 0.146 0.062 0.947 0.389 1.949 0.586 2.98 0.586 1.404 0 2.782-0.376 3.984-1.085l0.019-0.012c0.040-0.024 0.081-0.048 0.119-0.071l0.022-0.014c0.165-0.103 0.328-0.213 0.489-0.331l0.426-0.335c0.052-0.044 0.105-0.090 0.156-0.136l0.173-0.158c0.022-0.021 0.044-0.042 0.066-0.062l0.368-0.38c0.035-0.038 0.069-0.077 0.104-0.117l0.373-0.464c0.030-0.040 0.060-0.082 0.090-0.123l0.014-0.018c0.946-1.331 1.446-2.9 1.446-4.539 0-0.062-0.001-0.123-0.002-0.184zM34.566 30.534l-1.042-2.119 1.196-1.631h2.506l1.196 1.631-1.038 2.111c-0.92 0.204-1.897 0.206-2.819 0.007zM38.839 23.789l1.919-0.628 1.696 1.656c-0.093 0.932-0.377 1.809-0.844 2.612l-2.328 0.356-1.207-1.644 0.764-2.351zM40.426 22.149l-1.926 0.631-2.002-1.454v-2.028l2.122-1.107c0.727 0.324 1.384 0.778 1.955 1.349 0.082 0.082 0.163 0.167 0.242 0.255l-0.391 2.355zM31.492 22.149l-0.391-2.355c0.079-0.088 0.16-0.173 0.242-0.255 0.573-0.573 1.232-1.027 1.962-1.351l2.128 1.11v2.028l-2.006 1.457-1.936-0.634zM33.094 23.795l0.767 2.361-1.196 1.63-2.36-0.361c-0.466-0.801-0.748-1.678-0.841-2.607l1.696-1.656 1.935 0.633z" fill="#000000"></path>
</svg>
