<?xml version="1.0" encoding="utf-8"?>
<!-- Generated by IcoMoon.io -->
<!DOCTYPE svg PUBLIC "-//W3C//DTD SVG 1.1//EN" "http://www.w3.org/Graphics/SVG/1.1/DTD/svg11.dtd">
<svg version="1.1" xmlns="http://www.w3.org/2000/svg" xmlns:xlink="http://www.w3.org/1999/xlink" width="52" height="32" viewBox="0 0 52 32">
<g id="icomoon-ignore">
	<line stroke-width="1" x1="" y1="" x2="" y2="" stroke="#449FDB" opacity=""></line>
</g>
	<path d="M24.534 10.095c-0.219-0.266-0.477-0.494-0.767-0.676-0.134-0.084-0.276-0.159-0.423-0.222-0.204-0.088-0.416-0.153-0.632-0.195l-0.149-0.025c-0.327-0.047-0.66-0.041-0.981 0.015-0.493 0.087-0.968 0.298-1.373 0.611-0.322 0.249-0.594 0.556-0.806 0.911l-2.306 3.862-1.937-10.986c-0.004-0.024-0.011-0.048-0.016-0.058l-0.095-0.541c-0.003-0.015-0.006-0.031-0.009-0.047l-0.010-0.057c-0.007-0.039-0.015-0.076-0.025-0.112-0.16-0.608-0.542-1.138-1.074-1.492-0.449-0.298-0.973-0.456-1.515-0.456-0.16 0-0.322 0.014-0.49 0.043-0.393 0.069-0.756 0.216-1.080 0.436-0.181-0.253-0.404-0.47-0.664-0.646-0.578-0.391-1.289-0.541-1.982-0.419-0.697 0.123-1.308 0.503-1.719 1.071-0.312 0.43-0.486 0.924-0.506 1.435-0.304-0.051-0.619-0.049-0.926 0.005-0.699 0.123-1.311 0.504-1.724 1.071-0.421 0.578-0.585 1.281-0.462 1.978l0.218 1.236c-0.278-0.039-0.557-0.035-0.853 0.016-0.699 0.124-1.312 0.504-1.724 1.072-0.421 0.578-0.585 1.28-0.462 1.978l3.803 21.57c0.031 0.176 0.138 0.332 0.293 0.428 0.107 0.066 0.231 0.1 0.357 0.1 0 0 0 0 0 0 0.041 0 0.082-0.003 0.122-0.011l12.884-2.272c0.364-0.064 0.61-0.401 0.549-0.75l-0.518-2.937 3.6-6.046c0.009-0.010 0.016-0.020 0.024-0.031 0.030-0.046 0.060-0.092 0.089-0.14l2.172-3.639c0.024-0.039 0.045-0.079 0.060-0.112l1.317-2.205c0.431-0.721 0.572-1.57 0.397-2.39-0.108-0.505-0.334-0.979-0.655-1.371zM15.738 17.167c0.003 0.018 0.008 0.035 0.013 0.054 0.071 0.215 0.219 0.393 0.417 0.503 0.185 0.103 0.404 0.141 0.611 0.104 0.256-0.045 0.479-0.199 0.612-0.421l0.601-1.005c0.007-0.009 0.013-0.019 0.018-0.028l0.403-0.676c0.009-0.011 0.017-0.023 0.024-0.036l2.529-4.237c0.096-0.16 0.216-0.296 0.358-0.405 0.172-0.133 0.363-0.219 0.57-0.255 0.131-0.023 0.268-0.024 0.396-0.006l0.067 0.011c0.086 0.017 0.17 0.043 0.251 0.078 0.061 0.026 0.12 0.058 0.178 0.094 0.127 0.080 0.237 0.177 0.33 0.29 0.143 0.176 0.242 0.383 0.292 0.616 0.080 0.379 0.016 0.771-0.183 1.104l-1.38 2.312c-0.013 0.022-0.023 0.044-0.026 0.054l-0.811 1.358c-0.020 0.021-0.039 0.045-0.054 0.071l-1.352 2.268c-0.014 0.018-0.027 0.036-0.041 0.053-0.033 0.040-0.058 0.086-0.072 0.136l-3.307 5.547-11.333 1.989-2.025-11.481c0-0.020-0.002-0.040-0.006-0.062l-0.25-1.418c-0.004-0.023-0.010-0.047-0.015-0.056l-0.748-4.24c-0.007-0.18 0.047-0.354 0.157-0.505 0.136-0.187 0.34-0.313 0.575-0.354 0.233-0.040 0.47 0.008 0.661 0.137 0.118 0.079 0.212 0.187 0.274 0.312l0.888 5.036c0.004 0.023 0.010 0.046 0.018 0.067l0.128 0.723c0.035 0.202 0.226 0.344 0.431 0.307l1.038-0.183c0.202-0.036 0.336-0.232 0.3-0.437l-1.614-9.151c0.001-0.027-0.001-0.054-0.006-0.082l-0.028-0.158c-0.010-0.184 0.044-0.363 0.157-0.518 0.136-0.187 0.34-0.313 0.575-0.354 0.232-0.041 0.469 0.008 0.661 0.137 0.131 0.088 0.232 0.209 0.292 0.35l1.672 9.475c0.036 0.202 0.227 0.344 0.431 0.307l1.060-0.187c0.097-0.017 0.184-0.074 0.24-0.155s0.078-0.182 0.060-0.281l-0.976-5.529c-0.001-0.009-0.002-0.018-0.004-0.026l-0.152-0.859c-0-0.019-0.002-0.038-0.005-0.057l-0.498-2.822c-0.003-0.015-0.005-0.029-0.009-0.043l-0.010-0.056c-0.005-0.029-0.011-0.056-0.016-0.079l-0.303-1.721c-0.039-0.223 0.008-0.435 0.137-0.612 0.135-0.187 0.338-0.312 0.571-0.353 0.232-0.041 0.467 0.008 0.658 0.137 0.147 0.1 0.25 0.254 0.306 0.466l1.99 11.259c0.036 0.202 0.225 0.344 0.431 0.307l1.060-0.187c0.176-0.031 0.305-0.185 0.306-0.363 0.002-0.030 0-0.059-0.005-0.087l-1.763-9.997c-0.019-0.195 0.035-0.385 0.156-0.549 0.139-0.189 0.348-0.316 0.587-0.358 0.237-0.041 0.48 0.007 0.675 0.136 0.165 0.11 0.28 0.265 0.329 0.442l0.513 2.905c0.002 0.011 0.004 0.022 0.007 0.030l0.278 1.575 0.071-0.013-0.067 0.033 1.696 9.618zM14.112 7.534v0 0 0z" fill="#000000"></path>
	<path d="M51.877 7.925c-0.413-0.567-1.025-0.948-1.734-1.073-0.278-0.048-0.565-0.053-0.843-0.014l0.218-1.236c0.123-0.697-0.041-1.4-0.462-1.978-0.413-0.568-1.025-0.948-1.724-1.071-0.307-0.054-0.622-0.056-0.926-0.005-0.020-0.511-0.194-1.005-0.506-1.435-0.409-0.564-1.014-0.943-1.705-1.068l-0.015-0.003c-0.693-0.122-1.404 0.029-1.982 0.419-0.26 0.176-0.483 0.393-0.664 0.646-0.324-0.22-0.688-0.367-1.090-0.438-0.698-0.12-1.414 0.028-1.996 0.414-0.532 0.354-0.914 0.883-1.075 1.493-0.009 0.038-0.018 0.074-0.024 0.111l-0.111 0.634c-0.009 0.023-0.016 0.047-0.020 0.070l-1.937 10.986-2.306-3.862c-0.212-0.355-0.483-0.662-0.806-0.912-0.405-0.312-0.88-0.524-1.373-0.611-0.321-0.057-0.652-0.062-0.983-0.015l-0.149 0.025c-0.214 0.041-0.426 0.107-0.631 0.194-0.145 0.063-0.287 0.137-0.423 0.222-0.291 0.182-0.549 0.409-0.767 0.676-0.321 0.392-0.547 0.866-0.655 1.371-0.174 0.82-0.034 1.669 0.397 2.39l1.313 2.199c0.019 0.039 0.039 0.079 0.063 0.118l2.173 3.639c0.029 0.048 0.058 0.094 0.090 0.141 0.007 0.010 0.015 0.020 0.016 0.020l3.607 6.056-0.518 2.937c-0.061 0.349 0.185 0.686 0.549 0.75l12.884 2.272c0.041 0.007 0.082 0.011 0.123 0.011 0.127 0 0.25-0.034 0.356-0.1 0.155-0.096 0.262-0.252 0.294-0.428l3.803-21.57c0.123-0.697-0.041-1.4-0.462-1.977zM38.616 5.963c0.004-0.013 0.007-0.025 0.009-0.039l0.498-2.82 0.015-0.080c0.051-0.184 0.165-0.339 0.331-0.449 0.195-0.129 0.437-0.179 0.674-0.136 0.24 0.042 0.448 0.169 0.588 0.358 0.121 0.164 0.175 0.354 0.157 0.544l-1.764 10.002c-0.005 0.030-0.007 0.061-0.005 0.088 0.004 0.179 0.133 0.331 0.306 0.361l1.060 0.187c0.203 0.036 0.393-0.103 0.43-0.3 0.002-0.007 0.003-0.015 0.004-0.020l0.32-1.816c0.001-0.008 0.003-0.015 0.003-0.018l1.573-8.918 0.092-0.502c0.055-0.205 0.158-0.359 0.305-0.459 0.19-0.129 0.427-0.178 0.658-0.137 0.233 0.041 0.436 0.166 0.572 0.354 0.129 0.177 0.176 0.389 0.137 0.612l-0.302 1.716c-0.007 0.027-0.013 0.055-0.018 0.083l-0.009 0.052c-0.003 0.012-0.007 0.032-0.010 0.052l-0.497 2.817c-0.003 0.019-0.005 0.037-0.005 0.045l-0.154 0.87c-0.002 0.010-0.003 0.021-0.003 0.024l-0.976 5.532c-0.018 0.099 0.004 0.199 0.060 0.282s0.142 0.137 0.24 0.155l1.060 0.187c0.205 0.036 0.396-0.105 0.432-0.307l1.671-9.475c0.061-0.142 0.162-0.263 0.292-0.35 0.191-0.129 0.429-0.178 0.661-0.137 0.234 0.041 0.438 0.167 0.574 0.354 0.113 0.155 0.167 0.334 0.158 0.509l-0.029 0.167c-0.005 0.027-0.007 0.054-0.006 0.082l-1.614 9.151c-0.036 0.205 0.099 0.401 0.301 0.437l1.032 0.182c0.207 0.036 0.401-0.105 0.437-0.306l0.128-0.724c0.008-0.022 0.014-0.044 0.018-0.066l0.888-5.036c0.061-0.125 0.156-0.233 0.274-0.312 0.191-0.129 0.428-0.178 0.661-0.137 0.234 0.041 0.439 0.167 0.574 0.354 0.11 0.15 0.164 0.325 0.158 0.495l-0.746 4.239c-0.008 0.021-0.014 0.043-0.018 0.066l-0.25 1.418c-0.004 0.023-0.006 0.046-0.005 0.056l-2.026 11.488-11.333-1.989-3.308-5.548c-0.014-0.050-0.038-0.095-0.072-0.135-0.014-0.017-0.027-0.035-0.037-0.048l-1.356-2.274c-0.016-0.026-0.034-0.050-0.054-0.071l-0.806-1.348c-0.008-0.022-0.018-0.043-0.031-0.065l-1.38-2.312c-0.198-0.333-0.263-0.725-0.183-1.104 0.050-0.233 0.148-0.44 0.292-0.616 0.093-0.113 0.204-0.211 0.331-0.291 0.057-0.036 0.117-0.068 0.179-0.094 0.078-0.034 0.162-0.060 0.247-0.077l0.074-0.012c0.127-0.018 0.262-0.016 0.392 0.007 0.206 0.036 0.398 0.122 0.57 0.255 0.142 0.109 0.262 0.245 0.358 0.405l2.529 4.237c0.007 0.012 0.015 0.024 0.019 0.030l0.409 0.683c0.006 0.010 0.012 0.019 0.016 0.024l0.603 1.010c0.134 0.222 0.357 0.376 0.613 0.421 0.052 0.009 0.105 0.014 0.157 0.014 0.158 0 0.315-0.041 0.453-0.118 0.198-0.109 0.346-0.288 0.417-0.502 0.006-0.018 0.010-0.036 0.014-0.054l1.974-11.203z" fill="#000000"></path>
</svg>
