<?xml version="1.0" encoding="utf-8"?>
<!-- Generated by IcoMoon.io -->
<!DOCTYPE svg PUBLIC "-//W3C//DTD SVG 1.1//EN" "http://www.w3.org/Graphics/SVG/1.1/DTD/svg11.dtd">
<svg version="1.1" xmlns="http://www.w3.org/2000/svg" xmlns:xlink="http://www.w3.org/1999/xlink" width="39" height="32" viewBox="0 0 39 32">
<g id="icomoon-ignore">
	<line stroke-width="1" x1="" y1="" x2="" y2="" stroke="#449FDB" opacity=""></line>
</g>
	<path d="M0.44 7.36l0.526 0.767 6.585-4.759c0.199-0.148 1.999-1.443 4.14-1.449l3.191-0.127c-0.422-0.709-0.625-1.501-0.635-1.792-1.172 0-2.081 0-2.541 0-2.997 0-5.356 1.872-5.356 1.872l-6.136 4.297c-0.108 0.076-0.181 0.191-0.204 0.321s0.007 0.264 0.082 0.371l0.35 0.499z" fill="#000000"></path>
	<path d="M38.726 7.36l-0.526 0.767-6.585-4.759c-0.199-0.148-1.999-1.443-4.14-1.449l-3.191-0.127c0.422-0.709 0.625-1.501 0.635-1.792 1.172 0 2.081 0 2.541 0 2.997 0 5.357 1.872 5.357 1.872l6.136 4.297c0.108 0.076 0.182 0.191 0.205 0.321s-0.007 0.264-0.083 0.371l-0.35 0.499z" fill="#000000"></path>
	<path d="M30.836 4.513l-0.059-0.047c-0.163-0.119-1.648-1.166-3.316-1.166l-4.582-0.182c-0.853 0.49-1.911 0.782-3.061 0.782v0h-0c-0.005 0-0.009 0-0.013 0-0.003 0-0.006-0-0.009-0h-0c-0.073 0-0.144 0.006-0.212 0.015-0.069-0.009-0.139-0.015-0.212-0.015h-0c-0.003 0-0.006 0-0.009 0-0.005 0-0.009-0-0.013-0v0h-0c-1.149 0-2.208-0.292-3.061-0.782l-4.583 0.182c-1.668 0-3.154 1.047-3.316 1.166l-0.059 0.047-6.582 4.753 2.721 3.963c0.012 0.017 0.025 0.034 0.039 0.049 0.097 0.107 0.232 0.163 0.369 0.163 0 0 0 0 0 0 0.098 0 0.198-0.029 0.285-0.090l4.31-2.962v19.050c0.316 0.281 0.754 0.602 1.354 0.918 0.653 0.345 1.398 0.636 2.23 0.873 1.695 0.511 3.849 0.77 6.438 0.77 0.003 0 0.006 0 0.009 0 0.005 0 0.009 0 0.013 0 0.023 0 0.045-0 0.068-0.001s0.045 0.001 0.067 0.001c0.005 0 0.009 0 0.013 0 0.003 0 0.006 0 0.009 0 2.589 0 4.743-0.258 6.438-0.77 0.832-0.237 1.577-0.528 2.23-0.873 0.599-0.317 1.038-0.637 1.354-0.918v-19.051l4.31 2.962c0.087 0.061 0.186 0.090 0.285 0.090v0c0.137 0 0.272-0.057 0.369-0.163 0.014-0.015 0.027-0.032 0.039-0.049l2.721-3.963-6.582-4.753zM26.146 10.778c0 0.050-0.022 0.097-0.060 0.127-0.029 0.024-0.73 0.582-1.319 0.582s-1.289-0.558-1.319-0.582c-0.037-0.030-0.059-0.077-0.059-0.127v-2.034c0-0.088 0.067-0.16 0.15-0.16h2.456c0.083 0 0.15 0.072 0.15 0.16v2.034z" fill="#000000"></path>
</svg>
