<?xml version="1.0" encoding="utf-8"?>
<!-- Generated by IcoMoon.io -->
<!DOCTYPE svg PUBLIC "-//W3C//DTD SVG 1.1//EN" "http://www.w3.org/Graphics/SVG/1.1/DTD/svg11.dtd">
<svg version="1.1" xmlns="http://www.w3.org/2000/svg" xmlns:xlink="http://www.w3.org/1999/xlink" width="26" height="32" viewBox="0 0 26 32">
<g id="icomoon-ignore">
	<line stroke-width="1" x1="" y1="" x2="" y2="" stroke="#449FDB" opacity=""></line>
</g>
	<path d="M22.451 27.822c0.025-0.027 0.050-0.054 0.075-0.082 0.057-0.063 0.113-0.126 0.169-0.19 0.024-0.028 0.047-0.055 0.071-0.083 0.039-0.046 0.078-0.091 0.116-0.137 0.025-0.030 0.050-0.061 0.075-0.091 0.037-0.045 0.073-0.090 0.109-0.135 0.024-0.030 0.048-0.061 0.072-0.091 0.038-0.049 0.075-0.098 0.112-0.147 0.021-0.027 0.042-0.055 0.062-0.082 0.050-0.067 0.099-0.134 0.147-0.202 0.007-0.010 0.015-0.020 0.022-0.030 0-0 0.001-0.001 0.001-0.001v0c1.501-2.112 2.384-4.695 2.384-7.483 0-0.102-0.002-0.204-0.004-0.305-0.001-0.032-0.002-0.065-0.003-0.096-0.002-0.070-0.005-0.14-0.008-0.211-0.002-0.036-0.004-0.072-0.006-0.108-0.004-0.069-0.008-0.138-0.013-0.206-0.002-0.033-0.004-0.066-0.007-0.1-0.007-0.089-0.015-0.179-0.024-0.268-0.001-0.012-0.002-0.025-0.004-0.037-0.010-0.096-0.021-0.191-0.033-0.286-0.004-0.035-0.009-0.071-0.014-0.106-0.008-0.063-0.017-0.126-0.027-0.189-0.006-0.040-0.012-0.079-0.018-0.119-0.010-0.060-0.019-0.12-0.030-0.179-0.007-0.039-0.013-0.078-0.020-0.116-0.013-0.069-0.026-0.138-0.040-0.206-0.009-0.043-0.017-0.087-0.026-0.13-0.016-0.074-0.032-0.149-0.048-0.223-0.010-0.043-0.020-0.086-0.030-0.129-0.012-0.051-0.025-0.101-0.037-0.152-0.012-0.046-0.024-0.093-0.036-0.139-0.012-0.047-0.025-0.094-0.038-0.14s-0.026-0.095-0.040-0.142c-0.013-0.045-0.026-0.089-0.039-0.133-0.028-0.093-0.057-0.186-0.087-0.277-0.012-0.036-0.023-0.072-0.035-0.108-0.018-0.054-0.037-0.107-0.056-0.161-0.012-0.035-0.024-0.070-0.037-0.105-0.020-0.054-0.040-0.108-0.060-0.163-0.012-0.032-0.024-0.064-0.037-0.096-0.022-0.057-0.043-0.113-0.066-0.17-0.009-0.021-0.018-0.043-0.027-0.065-0.082-0.202-0.169-0.402-0.262-0.6-0.009-0.020-0.018-0.040-0.028-0.059-0.029-0.062-0.059-0.122-0.089-0.183-0.009-0.019-0.018-0.037-0.028-0.056-0.032-0.064-0.064-0.127-0.097-0.191-0.002-0.003-0.004-0.007-0.006-0.010-0.112-0.214-0.229-0.426-0.352-0.632-0.005-0.008-0.009-0.016-0.014-0.023-0.038-0.065-0.078-0.129-0.117-0.193-0.006-0.010-0.013-0.020-0.019-0.030-0.172-0.276-0.354-0.544-0.546-0.805-0.001-0.002-0.002-0.003-0.003-0.005h-0c-1.715-2.333-4.194-4.069-7.069-4.839-0.011-0.003-0.021-0.006-0.032-0.009-0.070-0.019-0.14-0.037-0.21-0.054-0.020-0.005-0.040-0.010-0.060-0.015-0.068-0.017-0.137-0.033-0.206-0.048-0.016-0.003-0.032-0.007-0.047-0.010-0.144-0.032-0.288-0.061-0.434-0.088-0.011-0.002-0.021-0.004-0.032-0.006-0.057-0.010-0.115-0.020-0.173-0.030-0.039-0.007-0.079-0.013-0.118-0.019-0.053-0.009-0.105-0.016-0.158-0.024-0.047-0.007-0.094-0.013-0.14-0.020-0.048-0.006-0.097-0.013-0.145-0.019-0.063-0.008-0.126-0.015-0.189-0.021-0.044-0.005-0.088-0.010-0.132-0.014-0.084-0.008-0.168-0.016-0.253-0.022-0.036-0.003-0.073-0.005-0.109-0.008-0.066-0.005-0.131-0.009-0.197-0.012-0.038-0.002-0.075-0.004-0.112-0.006-0.069-0.003-0.138-0.006-0.206-0.008-0.033-0.001-0.065-0.002-0.098-0.003-0.101-0.003-0.202-0.004-0.304-0.004s-0.202 0.001-0.303 0.004c-0.033 0.001-0.065 0.002-0.098 0.003-0.069 0.002-0.138 0.005-0.206 0.008-0.037 0.002-0.075 0.004-0.112 0.005-0.066 0.004-0.132 0.008-0.197 0.013-0.036 0.003-0.072 0.005-0.108 0.008-0.094 0.007-0.187 0.015-0.28 0.025-0.040 0.004-0.080 0.009-0.12 0.013-0.056 0.006-0.112 0.012-0.168 0.019-0.051 0.006-0.102 0.013-0.153 0.020-0.043 0.006-0.086 0.012-0.129 0.018-0.056 0.008-0.112 0.017-0.167 0.025-0.034 0.005-0.067 0.011-0.1 0.017-0.22 0.036-0.437 0.078-0.652 0.126-0.012 0.003-0.024 0.005-0.036 0.008-0.074 0.017-0.147 0.034-0.22 0.051-0.012 0.003-0.024 0.006-0.036 0.009-3.318 0.812-6.133 2.905-7.893 5.724-0.004 0.007-0.008 0.014-0.012 0.020-0.042 0.067-0.082 0.134-0.122 0.201-0.003 0.004-0.005 0.008-0.007 0.012-0.164 0.275-0.318 0.557-0.461 0.845-0.008 0.016-0.016 0.032-0.024 0.048-0.031 0.063-0.062 0.126-0.092 0.19-0.008 0.016-0.015 0.033-0.023 0.049-0.095 0.204-0.185 0.41-0.27 0.618-0.007 0.017-0.014 0.034-0.021 0.051-0.024 0.059-0.046 0.117-0.069 0.176-0.011 0.029-0.023 0.059-0.034 0.089-0.021 0.056-0.041 0.112-0.062 0.168-0.012 0.033-0.023 0.066-0.035 0.098-0.020 0.056-0.039 0.111-0.058 0.167-0.010 0.029-0.019 0.060-0.029 0.089-0.033 0.1-0.064 0.201-0.094 0.302-0.012 0.041-0.025 0.082-0.037 0.123-0.014 0.049-0.028 0.098-0.041 0.147-0.013 0.045-0.025 0.090-0.036 0.135-0.013 0.048-0.025 0.095-0.037 0.143-0.012 0.049-0.024 0.098-0.036 0.147-0.011 0.044-0.021 0.089-0.032 0.133-0.016 0.071-0.032 0.143-0.047 0.215-0.010 0.046-0.019 0.093-0.028 0.14-0.013 0.068-0.027 0.135-0.039 0.203-0.007 0.039-0.014 0.079-0.021 0.119-0.010 0.059-0.020 0.118-0.029 0.177-0.006 0.040-0.013 0.080-0.018 0.12-0.010 0.063-0.018 0.126-0.026 0.189-0.005 0.035-0.010 0.071-0.014 0.106-0.012 0.095-0.023 0.19-0.033 0.286-0.001 0.012-0.002 0.025-0.003 0.037-0.009 0.089-0.017 0.178-0.024 0.268-0.003 0.033-0.005 0.067-0.007 0.1-0.005 0.068-0.009 0.137-0.013 0.206-0.002 0.036-0.004 0.072-0.006 0.108-0.003 0.070-0.006 0.14-0.008 0.211-0.001 0.032-0.002 0.064-0.003 0.096-0.002 0.101-0.004 0.203-0.004 0.305 0 3.078 1.076 5.904 2.871 8.124 0.009 0.012 0.018 0.023 0.028 0.035 0.045 0.055 0.091 0.11 0.137 0.165 0.013 0.015 0.026 0.030 0.039 0.046 0.046 0.054 0.092 0.108 0.139 0.161 0.011 0.012 0.021 0.023 0.032 0.036 0.213 0.241 0.435 0.473 0.664 0.697 0.011 0.011 0.022 0.021 0.033 0.032 0.052 0.050 0.104 0.1 0.156 0.149 0.013 0.013 0.027 0.025 0.041 0.038 0.053 0.050 0.107 0.099 0.162 0.148 0.008 0.007 0.017 0.015 0.025 0.022 0.243 0.217 0.495 0.425 0.754 0.623 0.011 0.008 0.021 0.016 0.032 0.024 0.059 0.046 0.119 0.090 0.18 0.134 0.012 0.009 0.024 0.017 0.035 0.026 0.062 0.045 0.125 0.090 0.188 0.134 0.002 0.002 0.004 0.003 0.007 0.005 0.275 0.192 0.557 0.374 0.847 0.545 0.009 0.005 0.017 0.010 0.026 0.015 0.068 0.040 0.136 0.079 0.204 0.117 0.009 0.005 0.017 0.010 0.025 0.015 0.368 0.205 0.746 0.394 1.135 0.564 0.007 0.003 0.014 0.006 0.021 0.009 0.075 0.033 0.15 0.064 0.226 0.096 0.005 0.002 0.009 0.004 0.014 0.006 1.515 0.622 3.173 0.966 4.912 0.966 2.398 0 4.643-0.653 6.569-1.791 0.010-0.006 0.021-0.013 0.031-0.019 0.066-0.039 0.131-0.078 0.196-0.119 0.011-0.007 0.023-0.014 0.034-0.021 0.273-0.17 0.538-0.349 0.797-0.539 0.017-0.013 0.035-0.025 0.052-0.038 0.052-0.038 0.103-0.077 0.154-0.116 0.024-0.018 0.048-0.037 0.071-0.055 0.048-0.038 0.097-0.075 0.145-0.114 0.026-0.020 0.051-0.041 0.077-0.062 0.047-0.038 0.093-0.075 0.14-0.114 0.024-0.020 0.047-0.040 0.071-0.060 0.087-0.073 0.173-0.148 0.258-0.223 0.025-0.022 0.051-0.045 0.076-0.067 0.038-0.034 0.076-0.070 0.113-0.104 0.033-0.030 0.065-0.060 0.097-0.091 0.036-0.033 0.071-0.067 0.106-0.101 0.034-0.033 0.068-0.066 0.102-0.1s0.067-0.066 0.1-0.1c0.036-0.036 0.071-0.073 0.107-0.109 0.030-0.031 0.061-0.062 0.091-0.094 0.045-0.047 0.089-0.095 0.133-0.142zM18.401 25.617l-2.288-3.118 1.41-4.341 3.64-1.192 3.159 3.084c-0.148 1.75-0.69 3.419-1.584 4.903l-4.337 0.664zM21.557 11.563l-0.728 4.383-3.654 1.196-3.695-2.684v-3.846l3.949-2.061c1.323 0.566 2.538 1.385 3.586 2.433 0.188 0.188 0.368 0.381 0.541 0.579zM8.448 8.546l3.96 2.066v3.846l-3.702 2.69-3.67-1.202-0.728-4.383c0.173-0.198 0.353-0.392 0.541-0.579 1.051-1.051 2.271-1.872 3.599-2.438zM3.122 24.944c-0.891-1.482-1.431-3.147-1.579-4.894l3.159-3.084 3.666 1.2 1.416 4.357-2.27 3.093-4.392-0.673zM10.32 30.2l-1.94-3.948 2.269-3.092h4.619l2.269 3.092-1.934 3.934c-0.864 0.206-1.758 0.312-2.669 0.312-0.891 0-1.766-0.102-2.613-0.299z" fill="#000000"></path>
	<path d="M24.372 8.823l-1.536-1.536c-0.038-0.038-0.098-0.038-0.136 0l-0.89 0.89c-0.038 0.037-0.038 0.098 0 0.136l0.36 0.36-0.663 0.663c-0.038 0.038-0.038 0.099-0 0.136l0.68 0.68c0.038 0.038 0.098 0.038 0.136 0l0.663-0.663 0.36 0.36c0.037 0.037 0.098 0.037 0.136 0l0.89-0.89c0.038-0.037 0.038-0.098 0-0.136z" fill="#000000"></path>
	<path d="M12.889 0c-2.039 0-3.697 1.659-3.697 3.697s1.659 3.697 3.697 3.697 3.697-1.659 3.697-3.697c0-2.039-1.659-3.697-3.697-3.697zM13.669 6.181v-1.169h0.688c0.072 0 0.13-0.058 0.13-0.13v-1.702c0-0.072-0.058-0.13-0.13-0.13h-2.935c-0.072 0-0.13 0.058-0.13 0.13v1.702c0 0.072 0.058 0.13 0.13 0.13h0.688v1.169c-1.056-0.332-1.824-1.32-1.824-2.484 0-1.436 1.168-2.604 2.604-2.604s2.604 1.168 2.604 2.604c0 1.164-0.768 2.152-1.824 2.484z" fill="#000000"></path>
</svg>
