<?xml version="1.0" encoding="utf-8"?>
<!-- Generated by IcoMoon.io -->
<!DOCTYPE svg PUBLIC "-//W3C//DTD SVG 1.1//EN" "http://www.w3.org/Graphics/SVG/1.1/DTD/svg11.dtd">
<svg version="1.1" xmlns="http://www.w3.org/2000/svg" xmlns:xlink="http://www.w3.org/1999/xlink" width="24" height="32" viewBox="0 0 24 32">
<g id="icomoon-ignore">
	<line stroke-width="1" x1="" y1="" x2="" y2="" stroke="#449FDB" opacity=""></line>
</g>
	<path d="M10.956 10.962c0 0.643-0.521 1.164-1.164 1.164s-1.164-0.521-1.164-1.164c0-0.643 0.521-1.164 1.164-1.164s1.164 0.521 1.164 1.164z" fill="#000000"></path>
	<path d="M15.071 10.962c0 0.643-0.521 1.164-1.164 1.164s-1.164-0.521-1.164-1.164c0-0.643 0.521-1.164 1.164-1.164s1.164 0.521 1.164 1.164z" fill="#000000"></path>
	<path d="M14.477 13.758c-0.068-0.044-0.147-0.067-0.228-0.067-0.145 0-0.278 0.073-0.357 0.195-0.478 0.745-1.242 1.19-2.044 1.19s-1.566-0.445-2.044-1.19c-0.078-0.122-0.211-0.195-0.357-0.195-0.081 0-0.16 0.023-0.228 0.067-0.095 0.061-0.161 0.156-0.185 0.266s-0.004 0.224 0.057 0.319c0.634 0.988 1.665 1.579 2.756 1.579s2.121-0.59 2.756-1.579c0.126-0.196 0.069-0.459-0.127-0.585z" fill="#000000"></path>
	<path d="M18.505 5.982c-0.947-1.376-2.254-2.419-3.781-3.020-0.471-0.628-0.736-1.17-0.766-1.569-0.006-0.076-0.067-0.134-0.141-0.134-0.001 0-0.003 0-0.004 0-0.844 0.022-1.425 0.804-1.641 1.149-0.008-0.006-0.017-0.013-0.025-0.020-0.27-0.214-0.771-0.611-0.692-1.693 0.003-0.043-0.013-0.085-0.043-0.115-0.027-0.026-0.062-0.041-0.098-0.041-0.005 0-0.010 0-0.015 0.001-1.223 0.138-1.867 1.285-2.060 1.698-0.248-0.158-0.811-0.67-0.863-2.099-0.002-0.049-0.028-0.095-0.070-0.12-0.022-0.014-0.047-0.020-0.072-0.020-0.022 0-0.044 0.005-0.064 0.016-0.965 0.499-1.553 1.292-1.748 2.354-0.148 0.803-0.029 1.574 0.071 2.009-1.862 1.605-2.928 3.942-2.928 6.427 0 4.634 3.686 8.404 8.217 8.404s8.217-3.77 8.217-8.404c0-1.737-0.516-3.405-1.493-4.824zM11.781 18.083c-2.242 0-4.38-1.105-5.72-2.955-0.002-0.002-0.003-0.005-0.005-0.008-0.020-0.027-0.039-0.055-0.059-0.082l-0.026-0.038-0.009-0.012c-0.030-0.042-0.060-0.084-0.089-0.127-0.027-0.040-0.053-0.081-0.080-0.123l-0.006-0.009c-0.029-0.046-0.058-0.091-0.086-0.138-0.027-0.044-0.054-0.089-0.080-0.135-0.028-0.048-0.056-0.097-0.083-0.147l-0.017-0.030c-0.019-0.034-0.037-0.068-0.055-0.102-0.032-0.062-0.063-0.124-0.093-0.186-0.025-0.052-0.051-0.105-0.075-0.158-0.039-0.085-0.070-0.155-0.098-0.221-0.012-0.029-0.024-0.059-0.036-0.089l-0.014-0.037c-0.024-0.059-0.047-0.119-0.069-0.178-0.016-0.044-0.032-0.088-0.047-0.132-0.021-0.061-0.041-0.122-0.061-0.184l-0.009-0.027c-0.011-0.034-0.021-0.067-0.032-0.101-0.021-0.071-0.041-0.143-0.060-0.215-0.004-0.014-0.008-0.029-0.012-0.044-0.005-0.019-0.011-0.038-0.016-0.058-0.026-0.104-0.050-0.21-0.071-0.316-0.004-0.018-0.007-0.035-0.010-0.053l-0.007-0.037c-0.013-0.071-0.029-0.155-0.042-0.241-0.004-0.029-0.008-0.057-0.012-0.086l-0.005-0.035c-0.010-0.072-0.019-0.145-0.027-0.219-0.004-0.041-0.009-0.083-0.013-0.124-0.006-0.069-0.012-0.143-0.017-0.233l-0.003-0.041c-0.001-0.023-0.003-0.045-0.004-0.068-0.005-0.128-0.008-0.24-0.008-0.344 0-0.090 0.003-0.179 0.007-0.283 0.486-2.298 2.336-3.508 2.622-3.825 2.346 2.332 9.448 0.593 9.511 0.57 0.033 0.086 2.081 3.268 2.13 3.608-0.008 4.005-3.197 7.261-7.115 7.261z" fill="#000000"></path>
	<path d="M7.139 19.398c-0.214 0.078-0.424 0.162-0.629 0.252-1.454 0.639-2.697 1.579-3.694 2.792-1.842 2.242-2.816 5.38-2.816 9.075 0 0.267 0.215 0.483 0.48 0.483h0.897c-0.033-0.921-0.026-1.468-0.009-1.788-0.013-0.056-0.017-0.115-0.013-0.176 0.007-0.083 0.014-0.165 0.022-0.247 0.247-2.614 1.088-4.859 2.432-6.494 0.863-1.051 1.941-1.865 3.203-2.419 0.273-0.12 0.556-0.228 0.848-0.324-0.282-0.349-0.525-0.737-0.721-1.154z" fill="#000000"></path>
	<path d="M20.74 22.442c-0.997-1.213-2.24-2.153-3.694-2.792-0.204-0.089-0.412-0.173-0.623-0.25-0.198 0.42-0.442 0.809-0.727 1.16 0.282 0.094 0.556 0.199 0.821 0.316 1.262 0.555 2.339 1.369 3.203 2.419 1.343 1.635 2.184 3.881 2.432 6.495 0.008 0.081 0.015 0.164 0.022 0.246 0.005 0.061 0 0.12-0.013 0.177 0.016 0.296 0.025 0.841-0.009 1.787h0.924c0.265 0 0.48-0.216 0.48-0.483 0-3.695-0.974-6.832-2.816-9.075z" fill="#000000"></path>
	<path d="M20.991 30.136c-0.005-0.058-0.001-0.116 0.010-0.171-0.002-0.022-0.004-0.044-0.006-0.065-0.226-2.383-0.977-4.412-2.173-5.868-0.747-0.909-1.68-1.613-2.773-2.094-0.413-0.182-0.852-0.332-1.315-0.453-0.839 0.626-1.856 0.993-2.953 0.993-1.1 0-2.12-0.37-2.961-1-0.472 0.121-0.92 0.274-1.34 0.459-1.093 0.481-2.026 1.185-2.773 2.094-1.196 1.455-1.947 3.484-2.173 5.867-0.002 0.022-0.004 0.044-0.006 0.066 0.011 0.055 0.015 0.112 0.010 0.17-0.014 0.165-0.042 0.675 0.002 1.864h18.45c0.044-1.192 0.016-1.7 0.002-1.864zM16.785 29.655c0 0.038-0.017 0.073-0.045 0.096-0.022 0.018-0.551 0.439-0.995 0.439s-0.973-0.421-0.996-0.439c-0.028-0.023-0.045-0.058-0.045-0.096v-1.535c0-0.067 0.051-0.121 0.114-0.121h1.854c0.063 0 0.114 0.054 0.114 0.121v1.535z" fill="#000000"></path>
</svg>
