<?xml version="1.0" encoding="utf-8"?>
<!-- Generated by IcoMoon.io -->
<!DOCTYPE svg PUBLIC "-//W3C//DTD SVG 1.1//EN" "http://www.w3.org/Graphics/SVG/1.1/DTD/svg11.dtd">
<svg version="1.1" xmlns="http://www.w3.org/2000/svg" xmlns:xlink="http://www.w3.org/1999/xlink" width="26" height="32" viewBox="0 0 26 32">
<g id="icomoon-ignore">
	<line stroke-width="1" x1="" y1="" x2="" y2="" stroke="#449FDB" opacity=""></line>
</g>
	<path d="M19.237 31.735v-0.736l-1.471-1.706c-0.028-0.030-0.054-0.058-0.078-0.086l-1.062-1.228c-0.020-0.023-0.039-0.046-0.057-0.070l-0.618-0.715c-0.393-0.454-0.598-1.035-0.576-1.635 0.013-0.372 0.116-0.739 0.296-1.060 0.123-0.219 0.28-0.416 0.469-0.586 0.087-0.078 0.179-0.15 0.277-0.214 0.137-0.090 0.284-0.165 0.436-0.223 0.003-0.001 0.006-0.002 0.009-0.003l0.014-0.005c0.005-0.002 0.010-0.004 0.016-0.006l0.030-0.011c0.004-0.001 0.008-0.003 0.012-0.004l0.011-0.004c0.004-0.001 0.009-0.003 0.013-0.005 0.231-0.076 0.472-0.114 0.714-0.114 0.193 0 0.385 0.025 0.572 0.074-0.637-0.622-1.38-1.123-2.217-1.491-0.413-0.181-0.851-0.331-1.313-0.452-0.838 0.625-1.853 0.992-2.949 0.992-1.099 0-2.118-0.369-2.957-0.998-0.471 0.121-0.918 0.274-1.338 0.458-1.092 0.48-2.023 1.183-2.769 2.091-1.194 1.453-1.945 3.479-2.17 5.859-0.002 0.022-0.004 0.044-0.006 0.066 0.011 0.054 0.015 0.111 0.010 0.17-0.014 0.165-0.042 0.675 0.002 1.862h16.721c-0.012-0.072-0.020-0.144-0.020-0.219z" fill="#000000"></path>
	<path d="M18.624 22.175v-0.296c0-0.025 0.001-0.050 0.002-0.074v-0.159c0-0.010 0-0.019 0-0.028v-0.013c0-0.002 0-0.005 0-0.008 0-0.038 0.002-0.075 0.005-0.113 0-0.005 0.001-0.010 0.001-0.015 0.024-0.28 0.105-0.548 0.234-0.793-0.569-0.411-1.185-0.764-1.844-1.054-0.203-0.089-0.411-0.172-0.623-0.25-0.197 0.42-0.442 0.808-0.726 1.159 0.282 0.094 0.555 0.199 0.82 0.315 0.784 0.345 1.497 0.79 2.131 1.33z" fill="#000000"></path>
	<path d="M7.128 19.37c-0.213 0.078-0.423 0.162-0.628 0.252-1.452 0.638-2.693 1.576-3.688 2.788-1.84 2.239-2.812 5.372-2.812 9.062 0 0.266 0.215 0.482 0.479 0.482h0.896c-0.033-0.919-0.026-1.466-0.009-1.786-0.013-0.056-0.018-0.115-0.013-0.175 0.007-0.082 0.014-0.165 0.021-0.246 0.247-2.61 1.087-4.852 2.428-6.485 0.862-1.049 1.938-1.862 3.198-2.416 0.273-0.12 0.555-0.227 0.846-0.324-0.282-0.349-0.524-0.735-0.72-1.152z" fill="#000000"></path>
	<path d="M25.888 23.332c0-0.277-0.111-0.536-0.312-0.729-0.197-0.19-0.458-0.295-0.739-0.295-0.103 0-0.204 0.015-0.301 0.044v-0.457c0-0.277-0.111-0.536-0.312-0.729-0.197-0.19-0.458-0.295-0.735-0.295-0.115 0-0.228 0.018-0.337 0.054-0.045-0.187-0.143-0.359-0.287-0.498-0.197-0.19-0.457-0.295-0.734-0.295s-0.537 0.105-0.734 0.295c-0.084 0.081-0.152 0.174-0.204 0.278-0.135-0.058-0.279-0.087-0.433-0.087-0.278 0.001-0.54 0.106-0.739 0.294-0.181 0.172-0.292 0.402-0.312 0.648-0.001 0.015-0.002 0.030-0.002 0.045l-0 0.248c-0.002 0.008-0.002 0.017-0.002 0.027v4.231l-1.096-1.269c-0.105-0.122-0.23-0.221-0.371-0.295-0.292-0.153-0.634-0.183-0.946-0.081l-0.055 0.020c-0.079 0.030-0.156 0.070-0.229 0.117-0.051 0.033-0.1 0.072-0.147 0.114-0.1 0.090-0.183 0.195-0.248 0.311-0.096 0.172-0.151 0.369-0.158 0.57-0.011 0.326 0.1 0.642 0.314 0.889l0.642 0.742c0.010 0.014 0.021 0.028 0.033 0.042l1.063 1.23c0.014 0.017 0.029 0.032 0.044 0.048 0.004 0.004 0.008 0.007 0.006 0.006l1.762 2.043v1.138c0 0.146 0.124 0.265 0.276 0.265h5.019c0.070 0 0.136-0.025 0.187-0.070 0.056-0.050 0.088-0.121 0.088-0.195v-8.403zM25.156 25.538v4.457l-4.388 0.004-1.612-1.868c-0.010-0.019-0.024-0.036-0.040-0.050-0.006-0.005-0.012-0.011-0.015-0.014l-0.664-0.768c-0.008-0.009-0.017-0.018-0.027-0.025l-0.391-0.451c-0.005-0.009-0.011-0.018-0.018-0.025l-0.676-0.781c-0.094-0.109-0.143-0.248-0.138-0.393 0.003-0.088 0.026-0.171 0.067-0.244 0.027-0.048 0.061-0.091 0.101-0.127 0.019-0.017 0.039-0.032 0.059-0.046 0.027-0.018 0.056-0.033 0.084-0.044l0.026-0.009c0.117-0.038 0.251-0.027 0.367 0.034 0.059 0.031 0.112 0.073 0.157 0.125l1.238 1.432c0.004 0.005 0.008 0.009 0.010 0.010l0.2 0.231c0.003 0.004 0.007 0.007 0.008 0.008l0.295 0.341c0.069 0.079 0.168 0.125 0.273 0.125 0.085 0 0.168-0.030 0.235-0.084 0.071-0.058 0.118-0.139 0.13-0.228 0.001-0.008 0.002-0.017 0.002-0.025l-0-4.364c0.001-0.005 0.001-0.010 0.001-0.016v-1.094l0-0.020-0-0.014c0.007-0.068 0.038-0.131 0.090-0.18 0.124-0.118 0.343-0.118 0.466-0 0.053 0.050 0.084 0.115 0.090 0.182v3.896c0 0.013 0.001 0.026 0.004 0.037 0.015 0.076 0.082 0.131 0.158 0.131h0.413c0.088 0 0.16-0.072 0.161-0.168l-0-4.188 0.001-0.194c0.007-0.076 0.033-0.138 0.079-0.182 0.121-0.117 0.334-0.116 0.454-0 0.057 0.055 0.087 0.127 0.087 0.209l0 0.667c-0.001 0.011-0.001 0.023-0.001 0.035v0.019c-0 0.005-0.001 0.013-0.001 0.021v1.097c0 0.008 0.001 0.016 0.001 0.017l0 0.348-0 2.155c0 0.044 0.017 0.084 0.047 0.115s0.071 0.048 0.114 0.048h0.413c0.089 0 0.161-0.073 0.161-0.163l0-3.689c0.013-0.053 0.041-0.102 0.081-0.141 0.122-0.117 0.335-0.117 0.456-0 0.050 0.048 0.080 0.108 0.088 0.169v0.065c0 0.011 0.001 0.022 0.003 0.033v3.563c0 0.090 0.072 0.163 0.161 0.163h0.402c0.090 0 0.163-0.073 0.163-0.163l-0.001-0.276c0.002-0.011 0.003-0.021 0.003-0.032v-1.959c0.014-0.047 0.041-0.091 0.077-0.126 0.121-0.117 0.335-0.117 0.456-0 0.048 0.047 0.079 0.105 0.087 0.163l0.001 1.648c-0.002 0.009-0.003 0.019-0.003 0.029v0.553c-0 0.010 0.001 0.020 0.002 0.022z" fill="#000000"></path>
	<path d="M10.94 10.946c0 0.642-0.52 1.162-1.162 1.162s-1.162-0.52-1.162-1.162c0-0.642 0.52-1.162 1.162-1.162s1.162 0.52 1.162 1.162z" fill="#000000"></path>
	<path d="M15.049 10.946c0 0.642-0.52 1.162-1.162 1.162s-1.162-0.52-1.162-1.162c0-0.642 0.52-1.162 1.162-1.162s1.162 0.52 1.162 1.162z" fill="#000000"></path>
	<path d="M14.456 13.738c-0.068-0.044-0.147-0.067-0.228-0.067-0.145 0-0.278 0.073-0.356 0.194-0.478 0.744-1.24 1.188-2.041 1.188s-1.563-0.444-2.041-1.188c-0.078-0.122-0.211-0.195-0.356-0.195-0.081 0-0.159 0.023-0.228 0.067-0.095 0.061-0.161 0.155-0.185 0.265s-0.004 0.223 0.057 0.318c0.634 0.987 1.662 1.576 2.752 1.576s2.118-0.589 2.752-1.577c0.126-0.196 0.069-0.458-0.127-0.584z" fill="#000000"></path>
	<path d="M18.479 5.973c-0.946-1.374-2.251-2.416-3.776-3.016-0.47-0.627-0.734-1.168-0.764-1.566-0.005-0.076-0.067-0.134-0.141-0.134-0.002 0-0.003 0-0.004 0-0.842 0.022-1.423 0.803-1.639 1.148-0.008-0.006-0.017-0.013-0.025-0.020-0.269-0.213-0.77-0.611-0.691-1.69 0.003-0.043-0.013-0.085-0.043-0.115-0.027-0.026-0.062-0.041-0.098-0.041-0.005 0-0.010 0-0.016 0.001-1.222 0.137-1.864 1.284-2.057 1.696-0.248-0.157-0.81-0.669-0.861-2.096-0.002-0.049-0.028-0.095-0.069-0.12-0.022-0.013-0.047-0.020-0.072-0.020-0.022 0-0.044 0.005-0.064 0.016-0.963 0.499-1.55 1.29-1.746 2.351-0.148 0.802-0.029 1.571 0.071 2.007-1.86 1.602-2.924 3.936-2.924 6.417 0 4.627 3.681 8.392 8.205 8.392s8.205-3.765 8.205-8.392c0-1.735-0.516-3.4-1.491-4.817zM11.764 18.057c-2.239 0-4.374-1.103-5.712-2.951-0.002-0.002-0.003-0.005-0.005-0.008-0.020-0.027-0.039-0.054-0.058-0.082l-0.026-0.038-0.009-0.012c-0.030-0.042-0.060-0.084-0.088-0.127-0.027-0.040-0.053-0.081-0.080-0.122l-0.006-0.009c-0.029-0.045-0.058-0.091-0.086-0.137-0.027-0.044-0.054-0.089-0.080-0.134-0.028-0.048-0.056-0.098-0.083-0.147l-0.016-0.030c-0.019-0.034-0.037-0.068-0.055-0.102-0.032-0.062-0.063-0.124-0.093-0.186-0.026-0.052-0.051-0.105-0.075-0.158-0.039-0.085-0.070-0.155-0.098-0.221-0.012-0.029-0.024-0.059-0.036-0.089l-0.014-0.036c-0.023-0.059-0.047-0.118-0.069-0.178-0.016-0.044-0.032-0.088-0.047-0.132-0.021-0.061-0.042-0.122-0.061-0.183l-0.008-0.027c-0.011-0.034-0.021-0.067-0.032-0.101-0.021-0.071-0.041-0.142-0.060-0.214-0.004-0.014-0.008-0.029-0.012-0.044-0.005-0.019-0.010-0.038-0.015-0.057-0.026-0.104-0.050-0.21-0.071-0.316-0.004-0.018-0.007-0.035-0.010-0.053l-0.007-0.037c-0.013-0.071-0.029-0.155-0.042-0.241-0.004-0.029-0.008-0.057-0.012-0.086l-0.005-0.035c-0.010-0.072-0.019-0.145-0.027-0.218-0.004-0.041-0.009-0.082-0.012-0.124-0.006-0.069-0.012-0.143-0.018-0.233l-0.003-0.041c-0.001-0.023-0.003-0.045-0.004-0.068-0.005-0.128-0.008-0.24-0.008-0.344 0-0.090 0.003-0.178 0.007-0.282 0.485-2.295 2.332-3.503 2.618-3.82 2.343 2.329 9.434 0.593 9.497 0.569 0.033 0.086 2.078 3.263 2.127 3.603-0.008 3.999-3.193 7.251-7.104 7.251z" fill="#000000"></path>
</svg>
