<?xml version="1.0" encoding="utf-8"?>
<!-- Generated by IcoMoon.io -->
<!DOCTYPE svg PUBLIC "-//W3C//DTD SVG 1.1//EN" "http://www.w3.org/Graphics/SVG/1.1/DTD/svg11.dtd">
<svg version="1.1" xmlns="http://www.w3.org/2000/svg" xmlns:xlink="http://www.w3.org/1999/xlink" width="39" height="32" viewBox="0 0 39 32">
<g id="icomoon-ignore">
	<line stroke-width="1" x1="" y1="" x2="" y2="" stroke="#449FDB" opacity=""></line>
</g>
	<path d="M39.156 6.489c-0.023-0.13-0.096-0.245-0.204-0.321l-6.136-4.297c0 0-2.359-1.872-5.356-1.872-0.461 0-1.369 0-2.541 0 0 1.68-1.591 2.845-2.041 3.118s-1.911 0.782-3.061 0.782h-0c-0.004 0-0.008 0-0.013 0-0.002 0-0.006-0-0.008-0h-0c-0 0-0.001 0-0.001 0s-0 0-0.001 0h-0c-0.073 0-0.143 0.006-0.212 0.015-0.069-0.009-0.139-0.015-0.212-0.015h-0c-0 0-0 0-0.001 0s-0.001 0-0.001 0h-0c-0.002 0-0.006 0-0.008 0-0.004 0-0.008-0-0.013-0h-0c-1.149 0-2.61-0.509-3.061-0.782s-2.041-1.438-2.041-3.118c-1.172 0-2.081 0-2.541 0-2.997 0-5.356 1.872-5.356 1.872l-6.136 4.297c-0.108 0.075-0.181 0.191-0.204 0.321s0.007 0.263 0.082 0.372l4.377 6.368c0.012 0.017 0.025 0.034 0.039 0.049 0.096 0.107 0.232 0.163 0.369 0.163 0 0 0.001 0 0.001 0s0 0 0.001 0 0 0 0 0c0.098 0 0.198-0.029 0.285-0.090l4.308-2.961v19.050c0.316 0.281 0.754 0.601 1.354 0.918 0.653 0.345 1.398 0.636 2.23 0.873 1.695 0.511 3.849 0.77 6.438 0.77 0 0 0 0 0.001 0s0.001 0 0.001 0c0.003 0 0.006-0 0.008-0 0.004 0 0.008 0 0.013 0 0 0 0 0 0.001 0s0.001 0 0.001 0c0.023 0 0.044-0 0.067-0.001s0.044 0.001 0.067 0.001c0 0 0.001 0 0.001 0s0.001 0 0.001 0c0.004 0 0.008-0 0.013-0 0.003 0 0.005 0 0.008 0 0 0 0.001 0 0.001 0s0 0 0.001 0c2.589 0 4.743-0.258 6.438-0.77 0.832-0.237 1.577-0.528 2.23-0.873 0.599-0.317 1.038-0.636 1.354-0.918v-19.050l4.308 2.961c0.087 0.061 0.186 0.090 0.285 0.090 0 0 0 0 0 0s0 0 0.001 0 0.001 0 0.001 0c0.137 0 0.272-0.057 0.369-0.163 0.014-0.015 0.027-0.031 0.039-0.049l1.008-1.468 3.369-4.9c0.075-0.108 0.105-0.241 0.082-0.371zM13.805 29.052c-0.029-0.008-0.059-0.016-0.087-0.025l-0.017-0.005-0.017-0.005c-0.678-0.193-1.278-0.426-1.785-0.694-0.017-0.009-0.033-0.018-0.050-0.027v-25.994h0.656c0.338 0.679 0.8 1.277 1.302 1.772v24.979zM18.276 29.677c-0.695-0.025-1.348-0.073-1.957-0.142v-23.903c0.577 0.203 1.261 0.385 1.957 0.486v23.559zM22.748 29.545c-0.61 0.067-1.263 0.112-1.957 0.135v-23.548c0.691-0.093 1.374-0.269 1.957-0.468v23.88zM27.219 28.346c-0.497 0.258-1.081 0.483-1.738 0.67l-0.017 0.005-0.017 0.005c-0.060 0.018-0.122 0.035-0.184 0.053v-24.913c0.539-0.513 1.039-1.143 1.398-1.865h0.559v26.045z" fill="#000000"></path>
</svg>
