<?xml version="1.0" encoding="utf-8"?>
<!-- Generated by IcoMoon.io -->
<!DOCTYPE svg PUBLIC "-//W3C//DTD SVG 1.1//EN" "http://www.w3.org/Graphics/SVG/1.1/DTD/svg11.dtd">
<svg version="1.1" xmlns="http://www.w3.org/2000/svg" xmlns:xlink="http://www.w3.org/1999/xlink" width="48" height="32" viewBox="0 0 48 32">
<g id="icomoon-ignore">
	<line stroke-width="1" x1="" y1="" x2="" y2="" stroke="#449FDB" opacity=""></line>
</g>
	<path d="M24.916 14.035c0 0.624-0.507 1.131-1.131 1.131v0c-0.625 0-1.131-0.507-1.131-1.131v0c0-0.625 0.507-1.131 1.131-1.131v0c0.625 0 1.131 0.507 1.131 1.131v0z" fill="#000" fill="#000000"></path>
	<path d="M24.916 17.965c0 0.624-0.507 1.131-1.131 1.131v0c-0.625 0-1.131-0.507-1.131-1.131v0c0-0.625 0.507-1.131 1.131-1.131v0c0.625 0 1.131 0.507 1.131 1.131v0z" fill="#000" fill="#000000"></path>
	<path d="M42.549 15.671v-9.125c0-0.798-0.608-1.447-1.357-1.447h-13.381c-0.748 0-1.357 0.649-1.357 1.447v9.125h16.095z" fill="#000" fill="#000000"></path>
	<path d="M26.455 16.329v9.124c0 0.798 0.609 1.447 1.357 1.447h13.381c0.749 0 1.357-0.649 1.357-1.447v-9.124h-16.095z" fill="#000" fill="#000000"></path>
	<path d="M21.195 15.671v-9.125c0-0.798-0.609-1.447-1.357-1.447h-13.381c-0.748 0-1.357 0.649-1.357 1.447v9.125h16.095z" fill="#000" fill="#000000"></path>
	<path d="M5.099 16.329v9.124c0 0.798 0.609 1.447 1.357 1.447h13.381c0.748 0 1.357-0.649 1.357-1.447v-9.124h-16.095z" fill="#000" fill="#000000"></path>
	<path d="M40.174 15.851c0 5.202-2.455 8.17-5.771 8.17-3.423 0-5.573-3.36-5.573-7.894 0-4.787 2.348-8.148 5.753-8.148 3.512 0 5.591 3.429 5.591 7.871zM31.16 16.058c0 3.176 1.237 5.685 3.351 5.685 2.132 0 3.333-2.555 3.333-5.8 0-2.923-1.129-5.685-3.333-5.685-2.186 0-3.351 2.601-3.351 5.8z" fill="rgb(255, 255, 255)" fill="#000000"></path>
	<path d="M8.343 23.607v-1.726l1.681-1.634c3.341-3.268 4.913-5.064 4.935-7.043 0-1.335-0.677-2.508-2.533-2.508-1.267 0-2.315 0.668-3.035 1.243l-0.786-2.002c1.026-0.875 2.577-1.542 4.367-1.542 3.144 0 4.673 2.094 4.673 4.534 0 2.624-1.791 4.742-4.28 7.158l-1.223 1.128v0.046h5.808v2.348h-9.608z" fill="rgb(255, 255, 255)" fill="#000000"></path>
	<path d="M43.124 2.902c0.895 0 1.623 0.728 1.623 1.623v22.95c0 0.894-0.728 1.622-1.623 1.622h-38.6c-0.895 0-1.623-0.728-1.623-1.622v-22.951c0-0.895 0.728-1.623 1.623-1.623h38.6zM43.124 0h-38.6c-2.495 0-4.525 2.030-4.525 4.525v22.95c0 2.495 2.030 4.525 4.525 4.525h38.6c2.495 0 4.525-2.030 4.525-4.525v-22.951c-0-2.495-2.030-4.525-4.525-4.525v0z" fill="#000" fill="#000000"></path>
</svg>
