<?xml version="1.0" encoding="utf-8"?>
<!-- Generated by IcoMoon.io -->
<!DOCTYPE svg PUBLIC "-//W3C//DTD SVG 1.1//EN" "http://www.w3.org/Graphics/SVG/1.1/DTD/svg11.dtd">
<svg version="1.1" xmlns="http://www.w3.org/2000/svg" xmlns:xlink="http://www.w3.org/1999/xlink" width="26" height="32" viewBox="0 0 26 32">
<g id="icomoon-ignore">
	<line stroke-width="1" x1="" y1="" x2="" y2="" stroke="#449FDB" opacity=""></line>
</g>
	<path d="M24.62 8.897l-1.565-1.564c-0.038-0.038-0.1-0.038-0.139 0l-0.907 0.907c-0.038 0.038-0.038 0.1 0 0.139l0.367 0.367-0.676 0.676c-0.038 0.038-0.038 0.1-0 0.139l0.693 0.693c0.038 0.038 0.1 0.038 0.139 0l0.676-0.676 0.367 0.367c0.038 0.038 0.1 0.038 0.138 0l0.907-0.907c0.038-0.038 0.038-0.1 0-0.138z" fill="#000000"></path>
	<path d="M12.827 0c-2.077 0-3.767 1.69-3.767 3.767s1.69 3.767 3.767 3.767 3.767-1.69 3.767-3.767c0-2.077-1.69-3.767-3.767-3.767zM13.621 6.298v-1.191h0.701c0.073 0 0.132-0.059 0.132-0.132v-1.734c0-0.073-0.059-0.132-0.132-0.132h-2.991c-0.073 0-0.132 0.059-0.132 0.132v1.734c0 0.073 0.059 0.132 0.132 0.132h0.701v1.191c-1.076-0.338-1.858-1.345-1.858-2.531 0-1.463 1.19-2.653 2.653-2.653s2.653 1.19 2.653 2.653c0 1.186-0.782 2.193-1.858 2.531z" fill="#000000"></path>
	<path d="M12.827 11.984c0 0-1.711 6.433-1.711 7.141 0 0.945 0.766 1.711 1.711 1.711s1.711-0.766 1.711-1.711c0-0.708-1.711-7.141-1.711-7.141z" fill="#000000"></path>
	<path d="M12.827 6.25c-7.073 0-12.827 5.776-12.827 12.875s5.754 12.875 12.827 12.875 12.827-5.776 12.827-12.875c0-7.099-5.754-12.875-12.827-12.875zM12.827 29.915c-2.871 0-5.57-1.122-7.6-3.16s-3.148-4.747-3.148-7.629 1.118-5.592 3.148-7.629c2.030-2.038 4.729-3.16 7.6-3.16s5.57 1.122 7.6 3.16c2.030 2.038 3.148 4.747 3.148 7.629s-1.118 5.592-3.148 7.629c-2.030 2.038-4.729 3.16-7.6 3.16z" fill="#000000"></path>
	<path d="M12.827 9.492c-0.499 0-0.905 0.406-0.905 0.905s0.406 0.905 0.905 0.905 0.905-0.406 0.905-0.905c0-0.499-0.406-0.905-0.905-0.905z" fill="#000000"></path>
	<path d="M12.827 27.075c-0.499 0-0.905 0.406-0.905 0.905s0.406 0.905 0.905 0.905 0.905-0.406 0.905-0.905c0-0.499-0.406-0.905-0.905-0.905z" fill="#000000"></path>
	<path d="M4.035 18.283c-0.499 0-0.905 0.406-0.905 0.905s0.406 0.905 0.905 0.905c0.499 0 0.905-0.406 0.905-0.905s-0.406-0.905-0.905-0.905z" fill="#000000"></path>
	<path d="M21.618 18.283c-0.499 0-0.905 0.406-0.905 0.905s0.406 0.905 0.905 0.905 0.905-0.406 0.905-0.905c0-0.499-0.406-0.905-0.905-0.905z" fill="#000000"></path>
	<path d="M6.61 12.066c-0.242 0-0.469 0.094-0.64 0.265-0.353 0.353-0.353 0.927 0 1.279 0.171 0.171 0.398 0.265 0.64 0.265s0.469-0.094 0.64-0.265c0.353-0.353 0.353-0.927 0-1.279-0.171-0.171-0.398-0.265-0.64-0.265z" fill="#000000"></path>
	<path d="M19.043 24.5c-0.242 0-0.469 0.094-0.64 0.265s-0.265 0.398-0.265 0.64 0.094 0.469 0.265 0.64c0.171 0.171 0.398 0.265 0.64 0.265s0.469-0.094 0.64-0.265 0.265-0.398 0.265-0.64c0-0.242-0.094-0.469-0.265-0.64s-0.398-0.265-0.64-0.265z" fill="#000000"></path>
	<path d="M6.61 24.5c-0.242 0-0.469 0.094-0.64 0.265s-0.265 0.398-0.265 0.64 0.094 0.469 0.265 0.64c0.171 0.171 0.398 0.265 0.64 0.265s0.469-0.094 0.64-0.265c0.353-0.353 0.353-0.927 0-1.279-0.171-0.171-0.398-0.265-0.64-0.265z" fill="#000000"></path>
	<path d="M19.043 12.066c-0.242 0-0.469 0.094-0.64 0.265-0.353 0.353-0.353 0.927 0 1.279 0.171 0.171 0.398 0.265 0.64 0.265s0.469-0.094 0.64-0.265 0.265-0.398 0.265-0.64-0.094-0.469-0.265-0.64c-0.171-0.171-0.398-0.265-0.64-0.265z" fill="#000000"></path>
</svg>
