<?xml version="1.0" encoding="utf-8"?>
<!-- Generated by IcoMoon.io -->
<!DOCTYPE svg PUBLIC "-//W3C//DTD SVG 1.1//EN" "http://www.w3.org/Graphics/SVG/1.1/DTD/svg11.dtd">
<svg version="1.1" xmlns="http://www.w3.org/2000/svg" xmlns:xlink="http://www.w3.org/1999/xlink" width="61" height="32" viewBox="0 0 61 32">
<g id="icomoon-ignore">
	<line stroke-width="1" x1="" y1="" x2="" y2="" stroke="#449FDB" opacity=""></line>
</g>
	<path d="M60.904 9.848c0-3.467-2.82-6.287-6.287-6.287-1.249 0-2.413 0.368-3.393 0.998-2.678-2.617-6.269-4.303-10.252-4.531 0.020-0.019-0.001-0.029-0.080-0.029h-40.017c-0.483 0-0.875 0.376-0.875 0.839v7.454c0 0.387 0.277 0.725 0.67 0.816l23.443 5.404c-0.045 0.49-0.071 0.986-0.071 1.488 0 8.836 7.163 16 16 16s16-7.163 16-16c0-0.010-0.001-0.020-0.001-0.030 2.782-0.648 4.862-3.146 4.862-6.122zM27.031 4.828h-23.323c-0.619 0-1.121-0.502-1.121-1.121s0.502-1.121 1.121-1.121h23.323c0.619 0 1.121 0.502 1.121 1.121s-0.502 1.121-1.121 1.121zM40.042 26.952c-6.039 0-10.952-4.913-10.952-10.952s4.913-10.953 10.952-10.953c6.039 0 10.952 4.913 10.952 10.953s-4.913 10.952-10.952 10.952zM55.674 12.59c-0.426-1.962-1.211-3.789-2.285-5.41 0.374-0.173 0.789-0.271 1.227-0.271 1.622 0 2.941 1.319 2.941 2.941 0 1.249-0.783 2.315-1.883 2.741z" fill="#000000"></path>
	<path d="M47.258 16c0 3.985-3.231 7.216-7.216 7.216s-7.216-3.231-7.216-7.216c0-3.985 3.231-7.216 7.216-7.216s7.216 3.231 7.216 7.216z" fill="#000000"></path>
</svg>
